<svg width="80" height="80" viewBox="0 0 80 80" fill="none" xmlns="http://www.w3.org/2000/svg">
<path d="M39.94 79.4016C61.7552 79.4016 79.44 61.7254 79.44 39.9208C79.44 18.1161 61.7552 0.440002 39.94 0.440002C18.1248 0.440002 0.440002 18.1161 0.440002 39.9208C0.440002 61.7254 18.1248 79.4016 39.94 79.4016Z" stroke="#C4C740" stroke-width="0.88" stroke-miterlimit="10"/>
<path d="M32.1811 16.9205L32.2884 25.171L27.0374 25.2782V27.1366L32.9422 29.5413V36.4286C32.9422 36.4286 30.5925 36.4286 30.5925 38.7771V46.5936C30.5925 46.5936 30.8683 48.5592 32.176 48.5592V54.9003C32.176 54.9003 32.1555 56.922 32.8145 56.922C32.8145 56.922 30.8632 56.2124 30.8632 59.3829C30.8632 59.3829 31.3025 62.3339 33.7084 62.3339C33.7084 62.3339 34.2549 64.1922 35.8946 64.1922V68.6749C35.8946 68.6749 36.1142 70.2065 39.5059 70.2065H40.0525C43.4442 70.2065 43.6638 68.6749 43.6638 68.6749V64.1922C45.3035 64.1922 45.85 62.3339 45.85 62.3339C48.2559 62.3339 48.6952 59.3829 48.6952 59.3829C48.6952 56.2124 46.984 56.7944 46.984 56.7944C47.6378 56.7944 47.3876 54.9003 47.3876 54.9003V48.5592C48.7003 48.5592 48.971 46.5936 48.971 46.5936V41.7281H50.9376C50.9376 41.7281 53.7265 44.2961 55.9689 42.0038C55.9689 42.0038 59.33 45.3121 61.0565 43.5865C62.7779 41.8659 70.7361 33.9116 70.7361 33.9116C70.7361 33.9116 71.2827 33.5287 70.0261 32.4361L59.5292 22.3272C59.5292 22.3272 59.0388 22.1077 58.3799 22.7101L49.4665 32.1655H49.0834V26.044L49.6861 25.6049V24.8391H45.9675L46.2434 16.9664L32.1913 16.9103L32.1811 16.9205Z" stroke="#C4C740" stroke-width="0.96" stroke-miterlimit="10"/>
<path d="M45.8499 12.1315H32.2167C30.888 12.1315 29.8109 13.2081 29.8109 14.5362C29.8109 15.8643 30.888 16.9409 32.2167 16.9409H45.8499C47.1786 16.9409 48.2558 15.8643 48.2558 14.5362C48.2558 13.2081 47.1786 12.1315 45.8499 12.1315Z" stroke="#C4C740" stroke-width="0.96" stroke-miterlimit="10"/>
<path d="M32.9472 36.4337C32.9472 36.4337 30.761 38.0164 41.1506 38.0164V40.5283C41.1506 40.5283 41.314 41.6209 42.9026 41.6209C42.9026 41.6209 46.565 41.6209 47.6071 40.416L48.976 41.7281" stroke="#C4C740" stroke-width="0.96" stroke-miterlimit="10"/>
<path d="M41.1508 38.0215V34.9582H47.638L47.6226 40.4262" stroke="#C4C740" stroke-width="0.96" stroke-miterlimit="10"/>
<path d="M32.181 48.5694C32.181 48.5694 38.7958 51.6838 47.3823 48.5694" stroke="#C4C740" stroke-width="0.96" stroke-miterlimit="10"/>
<path d="M32.4365 56.6565C32.4365 56.6565 39.4702 60.7716 47.2905 56.5646" stroke="#C4C740" stroke-width="0.96" stroke-miterlimit="10"/>
<path d="M33.7134 62.3441C33.7134 62.3441 39.7306 60.0109 45.8551 62.3441" stroke="#C4C740" stroke-width="0.96" stroke-miterlimit="10"/>
<path d="M35.8997 64.2025C35.8997 64.2025 39.4344 62.4155 43.6638 64.2025" stroke="#C4C740" stroke-width="0.96" stroke-miterlimit="10"/>
<mask id="path-10-inside-1_117_188" fill="white">
<path d="M36.0138 67.2941H11.4802V67.9075H36.0138V67.2941Z"/>
</mask>
<path d="M11.4802 67.2941V66.2941H10.4802V67.2941H11.4802ZM36.0138 67.2941H37.0138V66.2941H36.0138V67.2941ZM36.0138 67.9075V68.9075H37.0138V67.9075H36.0138ZM11.4802 67.9075H10.4802V68.9075H11.4802V67.9075ZM11.4802 67.2941V68.2941H36.0138V67.2941V66.2941H11.4802V67.2941ZM36.0138 67.2941H35.0138V67.9075H36.0138H37.0138V67.2941H36.0138ZM36.0138 67.9075V66.9075H11.4802V67.9075V68.9075H36.0138V67.9075ZM11.4802 67.9075H12.4802V67.2941H11.4802H10.4802V67.9075H11.4802Z" fill="#C4C740" mask="url(#path-10-inside-1_117_188)"/>
<mask id="path-12-inside-2_117_188" fill="white">
<path d="M67.9075 67.2941H43.3738V67.9075H67.9075V67.2941Z"/>
</mask>
<path d="M43.3738 67.2941V66.2941H42.3738V67.2941H43.3738ZM67.9075 67.2941H68.9075V66.2941H67.9075V67.2941ZM67.9075 67.9075V68.9075H68.9075V67.9075H67.9075ZM43.3738 67.9075H42.3738V68.9075H43.3738V67.9075ZM43.3738 67.2941V68.2941H67.9075V67.2941V66.2941H43.3738V67.2941ZM67.9075 67.2941H66.9075V67.9075H67.9075H68.9075V67.2941H67.9075ZM67.9075 67.9075V66.9075H43.3738V67.9075V68.9075H67.9075V67.9075ZM43.3738 67.9075H44.3738V67.2941H43.3738H42.3738V67.9075H43.3738Z" fill="#C4C740" mask="url(#path-12-inside-2_117_188)"/>
</svg>
