<svg width="80" height="80" viewBox="0 0 80 80" fill="none" xmlns="http://www.w3.org/2000/svg">
    <path d="M39.94 79.44C61.7553 79.44 79.44 61.7552 79.44 39.94C79.44 18.1248 61.7553 0.440002 39.94 0.440002C18.1247 0.440002 0.440002 18.1248 0.440002 39.94C0.440002 61.7552 18.1247 79.44 39.94 79.44Z" stroke="#C4C740" stroke-width="0.88" stroke-miterlimit="10"/>
    <path d="M38.5015 44.4068L24.1373 55.3472L24.0777 55.3922L24.0338 55.4537C23.6924 55.9298 23.1838 56.3457 22.6343 56.6177C22.0786 56.8928 21.5344 56.9947 21.1197 56.9195C20.6391 56.8323 20.273 56.3606 20.2955 55.7632L20.2945 55.7623C20.3026 55.614 20.3615 55.464 20.4771 55.2916C20.5989 55.1101 20.7596 54.937 20.9527 54.7291C21.1318 54.5362 21.3492 54.3031 21.5045 54.0445C21.6667 53.7741 21.7834 53.4404 21.7252 53.0504H21.7261C21.6928 52.8235 21.5882 52.6493 21.4859 52.5211C21.3913 52.4025 21.2727 52.2936 21.2027 52.2261C21.0323 52.062 21.0065 52.0058 21.0025 51.9449L21.0015 51.941L21.0035 51.8863C21.0112 51.8304 21.04 51.7658 21.1138 51.6509C21.194 51.5261 21.3974 51.2562 21.4605 50.9234C21.6752 49.8638 20.9594 48.9242 20.1382 48.5621C19.8515 48.4355 19.5576 48.3294 19.3228 48.2369C19.0756 48.1394 18.8729 48.0493 18.6988 47.94C18.384 47.7425 18.1246 47.4596 17.9781 46.8355L17.9771 46.8345C17.8938 46.4823 17.9482 45.9342 18.1519 45.4586C18.3624 44.9672 18.6476 44.7327 18.898 44.7066L19.9722 44.5953L19.3189 43.9703L38.5015 44.4068Z" fill="#C4C740" stroke="#C4C740"/>
    <path d="M60.5845 43.94L59.8638 44.649L60.9166 44.7613C61.1856 44.7899 61.4905 45.0492 61.7144 45.5845C61.9033 46.0364 61.9724 46.5509 61.9263 46.9332L61.899 47.0884C61.743 47.7693 61.4655 48.0807 61.1314 48.2955C60.9478 48.4135 60.7345 48.5095 60.4761 48.6138C60.23 48.7132 59.924 48.827 59.6246 48.9625C58.7684 49.3492 58.0388 50.343 58.2574 51.4488V51.4498C58.3214 51.7954 58.5282 52.0753 58.6148 52.2134C58.718 52.3781 58.7455 52.4568 58.7388 52.5513V52.5552C58.7335 52.6398 58.6941 52.7097 58.5172 52.8843C58.3871 53.0126 58.0459 53.3016 57.982 53.7418C57.9225 54.146 58.0405 54.4934 58.2076 54.7789C58.3676 55.0522 58.592 55.3001 58.7798 55.5074C59.202 55.9733 59.4614 56.2796 59.4781 56.6461C59.5007 57.3086 59.103 57.824 58.5953 57.9185C58.1892 57.994 57.7578 57.8706 57.3023 57.5543C56.8448 57.2365 56.4032 56.7495 56.0103 56.188L55.9664 56.1255L55.9068 56.0797L40.2564 43.94H60.5845Z" fill="#C4C740" stroke="#C4C740"/>
    <path d="M68.44 66.6999C54.2436 80.9234 39.44 79.3919 39.44 79.3919C19.5032 79.3919 10.44 66.6999 10.44 66.6999L39.44 44.44L68.44 66.6999Z" stroke="#C4C740" stroke-width="0.96" stroke-miterlimit="10"/>
    <path d="M79.44 43.44H0.556035M0.440002 36.44H79.44" stroke="#C4C740" stroke-width="0.96" stroke-miterlimit="10"/>
</svg>
