<svg width="80" height="80" viewBox="0 0 80 80" fill="none" xmlns="http://www.w3.org/2000/svg">
    <path d="M39.94 79.4399C61.7553 79.4399 79.44 61.7552 79.44 39.9399C79.44 18.1247 61.7553 0.439941 39.94 0.439941C18.1248 0.439941 0.440002 18.1247 0.440002 39.9399C0.440002 61.7552 18.1248 79.4399 39.94 79.4399Z" stroke="#C4C740" stroke-width="0.88" stroke-miterlimit="10"/>
    <path d="M42.5502 13.2047C60.7179 14.8086 72.9012 33.8409 65.9918 51.2642C62.6445 60.1368 54.4422 66.7363 45.2076 68.5241C67.3666 64.5654 77.3882 36.9415 60.8252 19.6305C55.8578 14.4561 49.296 11.5803 42.5502 10.9929V13.2047Z" fill="#C4C740"/>
    <path d="M42.5502 68.8919C43.2247 68.8306 43.8993 68.7437 44.5688 68.6313C43.9095 68.7335 43.235 68.8152 42.5502 68.8765V68.8919Z" fill="#C4C740"/>
    <path d="M44.9981 68.5547C44.855 68.5802 44.7119 68.6058 44.5637 68.6313C44.7068 68.6109 44.8499 68.5802 44.9981 68.5547Z" fill="#C4C740"/>
    <path d="M45.2076 68.519C45.1361 68.5293 45.0696 68.5446 44.9981 68.5548C45.0696 68.5395 45.1361 68.5293 45.2076 68.519Z" fill="#C4C740"/>
    <path d="M37.3733 68.8765C36.6782 68.8152 35.9934 68.7335 35.3188 68.6262C35.9985 68.7437 36.6833 68.8305 37.3733 68.8918V68.8765Z" fill="#C4C740"/>
    <path d="M35.0991 68.5854C35.1758 68.5957 35.2473 68.611 35.3188 68.6263C35.2422 68.6161 35.1706 68.6008 35.0991 68.5854Z" fill="#C4C740"/>
    <path d="M13.9213 51.2642C7.00688 33.8358 19.1953 14.8035 37.3733 13.2047V10.9929C30.6275 11.5803 24.0656 14.4561 19.0982 19.6305C2.55055 36.9363 12.5415 64.5296 34.68 68.5139C25.4557 66.7159 17.2687 60.1266 13.9213 51.2642Z" fill="#C4C740"/>
    <path d="M34.6749 68.5139C34.8129 68.5395 34.956 68.565 35.094 68.5905C34.9509 68.565 34.8129 68.5395 34.6749 68.5139Z" fill="#C4C740"/>
    <path d="M42.5501 19.1402C53.0419 20.3406 61.7041 29.5963 61.7706 40.369C62.0363 51.2847 53.9771 60.617 43.4955 62.3282C61.1675 59.5954 69.2829 37.7588 56.2308 24.1001C52.495 20.2129 47.6043 17.9909 42.545 17.424V19.1351L42.5501 19.1402Z" fill="#C4C740"/>
    <path d="M42.5501 62.4558C42.8669 62.4201 43.1838 62.3741 43.5006 62.323C43.1889 62.369 42.8721 62.4149 42.5501 62.4507V62.4558Z" fill="#C4C740"/>
    <path d="M36.8928 62.3945C36.9899 62.4099 37.0819 62.4201 37.179 62.4354C37.0819 62.4252 36.9899 62.4099 36.8928 62.3945Z" fill="#C4C740"/>
    <path d="M19.9567 32.0838C22.9514 25.0655 29.8557 20.0239 37.3732 19.1402V17.424C32.3138 17.9909 27.4282 20.2129 23.6874 24.1001C10.5279 37.8814 18.8937 59.9785 36.8979 62.3895C22.9259 60.4382 14.1206 45.4974 19.9567 32.0787V32.0838Z" fill="#C4C740"/>
    <path d="M42.5503 57.4347C42.6065 57.4245 42.6627 57.4143 42.719 57.4041C42.6627 57.4143 42.6065 57.4194 42.5503 57.4296V57.4347Z" fill="#C4C740"/>
    <path d="M42.5503 23.7884C50.4766 24.9888 56.9209 32.0685 56.972 40.2719C57.1816 48.7869 50.8906 56.0658 42.719 57.3989C56.5019 55.2689 62.8286 38.2338 52.6537 27.5786C49.8787 24.6926 46.2912 22.9814 42.5503 22.4399V23.7782V23.7884Z" fill="#C4C740"/>
    <path d="M37.3734 57.4245C26.5903 55.79 19.8292 44.2153 24.357 33.8154C26.6159 28.5185 31.7314 24.6671 37.3734 23.7987V22.4502C33.6325 22.9865 30.045 24.7028 27.27 27.5888C17.0542 38.29 23.4678 55.412 37.3734 57.4296V57.4245Z" fill="#C4C740"/>
    <path d="M39.94 45.4399C42.9776 45.4399 45.44 42.9775 45.44 39.9399C45.44 36.9024 42.9776 34.4399 39.94 34.4399C36.9024 34.4399 34.44 36.9024 34.44 39.9399C34.44 42.9775 36.9024 45.4399 39.94 45.4399Z" fill="#C4C740"/>
</svg>
