<svg width="80" height="80" viewBox="0 0 80 80" fill="none" xmlns="http://www.w3.org/2000/svg">
    <path d="M39.94 79.44C61.7553 79.44 79.44 61.7552 79.44 39.94C79.44 18.1248 61.7553 0.440002 39.94 0.440002C18.1248 0.440002 0.440002 18.1248 0.440002 39.94C0.440002 61.7552 18.1248 79.44 39.94 79.44Z" stroke="#C4C740" stroke-width="0.88" stroke-miterlimit="10"/>
    <path d="M12.44 67.44H67.44" stroke="#C4C740" stroke-miterlimit="10"/>
    <path d="M35.44 40.44V39.6329L20.2824 29.44H1.8912C0.841563 33.3625 0.418284 37.0367 0.440857 40.44H35.44Z" fill="#C4C740"/>
    <path d="M4.32973 57.0541C7.79014 63.997 12.2566 67.8278 12.2566 67.8278H34.6498V57.0541H4.32973Z" fill="#C4C740"/>
    <path d="M34.6553 52.6706V45.0035H0.659233C1.01301 47.795 1.65979 50.3544 2.47791 52.6706H34.6553Z" fill="#C4C740"/>
    <path d="M79.4392 40.44C79.4611 37.0367 79.0499 33.3682 78.0303 29.44H60.1646L45.44 39.6329V40.44H79.4392Z" fill="#C4C740"/>
    <path d="M45.44 56.44V67.44H68.3312C68.3312 67.44 72.9026 63.5344 76.44 56.44H45.44Z" fill="#C4C740"/>
    <path d="M77.6267 52.44C78.4449 50.0233 79.0917 47.347 79.44 44.44H45.44V52.44H77.6267Z" fill="#C4C740"/>
    <path d="M19.44 29.44H60.44L45.3893 39.5756V67.44H34.4963V39.5756L19.44 29.44Z" stroke="#C4C740" stroke-miterlimit="10"/>
</svg>
