<svg width="80" height="80" viewBox="0 0 80 80" fill="none" xmlns="http://www.w3.org/2000/svg">
    <path d="M39.96 79.46C61.7752 79.46 79.46 61.7753 79.46 39.96C79.46 18.1448 61.7752 0.460022 39.96 0.460022C18.1448 0.460022 0.459999 18.1448 0.459999 39.96C0.459999 61.7753 18.1448 79.46 39.96 79.46Z" stroke="#C4C740" stroke-width="0.92" stroke-miterlimit="10"/>
    <path d="M27.96 17.96V63.96H20.96V17.96H27.96Z" stroke="#C4C740"/>
    <path d="M42.96 17.96V63.96H35.96V17.96H42.96Z" stroke="#C4C740"/>
    <path d="M57.96 17.96V63.96H50.96V17.96H57.96Z" stroke="#C4C740"/>
    <path d="M17.46 34.46H30.46V44.46H17.46V34.46Z" fill="#9C9E27"/>
    <path d="M33.46 34.46H45.46V44.46H33.46V34.46Z" fill="#9C9E27"/>
    <path d="M48.46 34.46H60.46V44.46H48.46V34.46Z" fill="#9C9E27"/>
</svg>
