<svg width="80" height="80" viewBox="0 0 80 80" fill="none" xmlns="http://www.w3.org/2000/svg">
    <path d="M39.94 79.4399C61.7553 79.4399 79.44 61.7552 79.44 39.9399C79.44 18.1247 61.7553 0.439941 39.94 0.439941C18.1248 0.439941 0.440002 18.1247 0.440002 39.9399C0.440002 61.7552 18.1248 79.4399 39.94 79.4399Z" stroke="#C4C740" stroke-width="0.88" stroke-miterlimit="10"/>
    <path d="M30.8082 16.3916V20.085C30.5861 20.0892 30.2951 20.0952 29.9498 20.1016L29.9527 20.2852C28.8488 20.5635 28.009 21.1039 27.3863 21.8086C26.5545 22.75 26.1471 23.9416 25.9615 25.0723C25.7755 26.2056 25.8059 27.3158 25.8804 28.1357C25.9082 28.4416 25.9441 28.7095 25.9761 28.9258C25.9005 28.9274 25.8186 28.9298 25.732 28.9316C25.2388 28.942 24.5833 28.9536 23.9322 28.9619C23.2798 28.9702 22.6353 28.9749 22.1646 28.9688C22.1015 28.9679 22.0422 28.9641 21.9869 28.9629C22.016 28.7524 22.0486 28.4892 22.0728 28.1865C22.1358 27.3983 22.1547 26.3287 21.9683 25.2295C21.7823 24.1327 21.3869 22.9717 20.5943 22.0361C19.8147 21.1161 18.6804 20.4498 17.0865 20.2539V16.3916H30.8082Z" stroke="#C4C740"/>
    <path d="M17.4083 34.4484V31.5372C17.4083 31.2691 17.6256 31.0521 17.8936 31.0519H30.0098C30.2781 31.0519 30.4961 31.2689 30.4962 31.5372V34.4484C30.4962 34.7167 30.2781 34.9347 30.0098 34.9347H17.8936L17.796 34.9249C17.6064 34.886 17.4569 34.7366 17.418 34.547L17.4083 34.4484Z" stroke="#C4C740"/>
    <path d="M43.9035 52.9443H46.8156C47.0837 52.9444 47.3007 53.1616 47.301 53.4297V65.5459C47.301 65.8142 47.0839 66.0322 46.8156 66.0322H43.9035C43.6354 66.032 43.4182 65.8141 43.4182 65.5459V53.4297L43.4279 53.332C43.4733 53.1109 43.669 52.9446 43.9035 52.9443Z" stroke="#C4C740"/>
    <path d="M26.0883 37.0686V52.5569C26.0883 53.3996 26.2358 54.2565 26.5902 55.051V55.052C26.8783 55.7031 27.337 56.4286 28.0648 56.9924C28.7998 57.5619 29.7817 57.9446 31.0726 57.9446H41.3451V62.1653H32.0892C29.8704 62.1653 27.6794 61.5947 25.7982 60.4368C23.9066 59.2723 22.1383 57.4046 22.1381 54.5696V54.5686V53.7952C22.1379 53.3029 22.1376 52.5997 22.1371 51.7561C22.136 50.0685 22.1344 47.8179 22.1302 45.5676C22.1261 43.3175 22.1201 41.0666 22.1107 39.3782C22.106 38.5342 22.1005 37.8293 22.0941 37.3352C22.0929 37.2384 22.0906 37.1493 22.0892 37.0686H26.0883Z" stroke="#C4C740"/>
    <path d="M48.6495 1.84912V23.9312C48.6495 24.7743 48.7976 25.6324 49.1524 26.4272V26.4282C49.4404 27.0763 49.8986 27.8014 50.626 28.3657C51.3608 28.9358 52.3433 29.3198 53.6348 29.3198H58.6573L58.6788 29.3179H58.6797C58.6823 29.3177 58.6869 29.3173 58.6934 29.3169C58.7073 29.316 58.7304 29.3151 58.7608 29.314C58.8215 29.3117 58.9139 29.3096 59.0333 29.312C59.2729 29.3169 59.6204 29.3385 60.0391 29.4067C60.8779 29.5434 61.9946 29.8653 63.1094 30.603C65.3094 32.059 67.6358 35.2284 67.6358 42.2183V51.9741C67.6358 54.1972 67.0609 56.3838 65.9073 58.2661C64.7652 60.1267 62.9963 61.8166 60.3038 61.9204L60.0401 61.9253H59.5645C59.2617 61.9254 58.8287 61.9258 58.3096 61.9263C57.2714 61.9273 55.8866 61.9299 54.502 61.9341C53.1175 61.9382 51.7312 61.9443 50.6915 61.9536C50.1913 61.9581 49.7695 61.9631 49.4659 61.9692V57.9702H58.0274C58.8712 57.9702 59.7286 57.8232 60.5225 57.4741L60.5245 57.4731C61.1725 57.1851 61.8977 56.7269 62.462 55.9995C63.032 55.2647 63.4161 54.2822 63.4161 52.9907V42.2524C63.4183 42.2366 63.4216 42.2161 63.4249 42.1919C63.4333 42.1282 63.4447 42.0363 63.4571 41.9204C63.482 41.6879 63.5106 41.3571 63.5274 40.9614C63.5608 40.1733 63.5468 39.1105 63.3497 38.0386C63.1535 36.9724 62.7681 35.8525 62.0255 34.9917C61.266 34.1115 60.1644 33.5406 58.6358 33.5405H54.6514C52.4274 33.5405 50.2408 32.9692 48.3594 31.811H48.3585C46.4375 30.6267 44.7003 28.7796 44.7003 25.939V24.9839C44.7001 24.3762 44.6998 23.508 44.6993 22.4663C44.6982 20.3826 44.6956 17.604 44.6915 14.8257C44.6873 12.0477 44.6813 9.26931 44.6719 7.18506C44.6673 6.14305 44.6617 5.27283 44.6553 4.66357C44.6522 4.35948 44.6493 4.11844 44.6456 3.95264C44.6437 3.87036 44.6419 3.80263 44.6397 3.75439C44.6387 3.73169 44.637 3.7059 44.6348 3.68311C44.6346 3.68109 44.6342 3.67847 44.6339 3.67529V1.04932L48.6495 1.84912Z" stroke="#C4C740"/>
</svg>
