<svg width="95" height="95" viewBox="0 0 95 95" fill="none" xmlns="http://www.w3.org/2000/svg">
    <path d="M47.44 94.4399C73.3974 94.4399 94.44 73.3973 94.44 47.4399C94.44 21.4825 73.3974 0.439941 47.44 0.439941C21.4826 0.439941 0.440002 21.4825 0.440002 47.4399C0.440002 73.3973 21.4826 94.4399 47.44 94.4399Z" stroke="#C4C740" stroke-width="0.88" stroke-miterlimit="10"/>
    <path d="M86.088 43.3164C85.6809 40.3157 79.5153 42.2067 78.9178 41.3597L77.3813 36.5665C78.3925 35.424 82.4963 33.5461 82.4898 32.003C82.4898 31.0838 77.9067 24.8264 76.9874 24.242C75.0373 23.0076 72.6932 26.5335 71.1764 27.1573C70.2703 27.5316 67.3418 24.6753 66.311 24.1829C66.462 22.4494 68.747 18.9234 67.657 17.4067C67.2039 16.7763 62.194 15.1282 59.6201 14.6161V37.0195C59.955 37.2231 60.2898 37.4463 60.6247 37.7155C67.3878 43.2245 66.1862 53.4545 59.6201 57.637V80.244C61.5834 79.6925 67.4206 77.657 67.6636 77.3419C68.7601 75.9236 66.4423 72.2531 66.3897 70.5459C66.4488 70.3096 69.9288 67.7291 70.2375 67.5978C71.8264 66.8952 74.3216 71.3602 76.7904 70.6182C77.4733 70.4146 82.3453 63.8091 82.4701 62.9949C82.7458 61.1499 78.5304 59.3179 77.3288 58.1886L79.0097 52.9226C80.428 52.5549 85.2935 53.5333 85.9238 52.2332C86.193 51.6751 86.2324 44.321 86.1011 43.3164H86.088Z" fill="#C4C740"/>
    <path d="M48.9108 21.2676H14.938V24.0122H48.9108V21.2676Z" fill="#C4C740"/>
    <path d="M56.8623 35.2926H22.8895V38.0372H56.8623V35.2926Z" fill="#C4C740"/>
    <path d="M48.9108 59.1472H14.938V61.8918H48.9108V59.1472Z" fill="#C4C740"/>
    <path d="M56.8623 73.1724H22.8895V75.917H56.8623V73.1724Z" fill="#C4C740"/>
    <path d="M42.6927 47.5779H8.71985V50.3225H42.6927V47.5779Z" fill="#C4C740"/>
</svg>
