<svg width="95" height="95" viewBox="0 0 95 95" fill="none" xmlns="http://www.w3.org/2000/svg">
    <path d="M47.44 94.4399C73.3974 94.4399 94.44 73.3973 94.44 47.4399C94.44 21.4826 73.3974 0.439941 47.44 0.439941C21.4826 0.439941 0.440002 21.4826 0.440002 47.4399C0.440002 73.3973 21.4826 94.4399 47.44 94.4399Z" stroke="#C4C740" stroke-width="0.88" stroke-miterlimit="10"/>
    <path d="M55.4769 9.70471V16.6254H50.9791V20.0003L51.268 20.2301C70.4869 22.456 83.4024 40.7032 79.2592 59.6988C76.4817 72.437 65.9235 82.5094 53.054 84.6959C31.0379 88.4386 11.97 69.7712 15.2005 47.7026C17.3476 33.034 29.3833 21.7075 44.0584 20.0857V16.6254H39.39V9.70471H55.4769ZM46.1005 26.8816C26.0739 28.0175 14.7278 50.8346 26.4482 67.3615C37.9651 83.5928 62.7586 81.2159 70.9006 63.1001C78.7405 45.654 65.1552 25.8047 46.1005 26.8816Z" fill="#C4C740"/>
    <path d="M47.44 76.4686C36.8226 76.4686 28.313 63.645 28.313 53.0277C28.313 42.4103 36.9212 33.8088 47.5319 33.8088C52.2332 33.8088 56.5406 35.4963 59.8827 38.3L63.3496 35.0695C59.2786 31.6485 54.0192 29.5868 48.287 29.5868C35.3387 29.5868 24.8461 40.0794 24.8461 53.0277C24.8461 65.976 34.5179 76.4686 47.4597 76.4686" fill="url(#paint0_linear_346_2)"/>
    <defs>
        <linearGradient id="paint0_linear_346_2" x1="44.1044" y1="75.4377" x2="44.1044" y2="31.491" gradientUnits="userSpaceOnUse">
            <stop/>
            <stop offset="1" stop-color="#C4C63F"/>
        </linearGradient>
    </defs>
</svg>
