<svg width="95" height="95" viewBox="0 0 95 95" fill="none" xmlns="http://www.w3.org/2000/svg">
    <path d="M47.44 94.4399C73.3974 94.4399 94.44 73.3973 94.44 47.44C94.44 21.4826 73.3974 0.439941 47.44 0.439941C21.4826 0.439941 0.440002 21.4826 0.440002 47.44C0.440002 73.3973 21.4826 94.4399 47.44 94.4399Z" stroke="#C4C740" stroke-width="0.88" stroke-miterlimit="10"/>
    <path d="M2.84972 33.3623C9.52086 38.7071 12.5807 48.6744 21.3398 51.5175C24.4193 52.5155 23.7758 50.6639 26.2841 49.5936C27.4988 49.0749 29.7838 49.7053 30.9 49.9548C35.0301 50.8871 35.7064 50.8412 39.8496 49.4163C41.7143 48.7729 43.5332 48.1491 45.5293 48.6087C47.6829 49.1012 46.9672 49.6002 48.2739 50.4275C49.5017 51.2023 50.2306 51.4519 51.5503 52.0362C54.7808 53.4611 57.2563 57.0724 60.9267 58.9372C63.8421 60.4211 66.7508 61.7803 70.1061 60.8348C71.3011 60.4999 71.7607 59.7448 72.8901 59.3705C74.3346 58.8978 75.9368 59.1604 77.4207 58.773C80.7628 57.8932 84.6434 52.9489 86.5476 56.0678C88.1366 58.668 89.9816 59.2852 91.0322 59.6791C91.0322 59.6791 92.5883 61.0186 91.8989 61.7015C91.8989 61.7015 87.2698 78.1824 71.5112 87.5784C71.5112 87.5784 49.9679 102.037 25.2466 88.734C25.2466 88.734 9.05469 82.8049 1.39207 58.8059C1.39207 58.8059 -1.49702 43.4806 2.11433 34.0846L2.83658 33.3623H2.84972Z" fill="#C4C740"/>
    <path d="M3.21088 30.7622L3.93317 30.0399C10.6043 35.3847 13.6641 45.352 22.4232 48.1951C25.5027 49.1932 24.8593 47.3415 27.3675 46.2713C28.5822 45.7525 30.8672 46.3829 31.9835 46.6324C36.1135 47.5648 36.7898 47.5188 40.933 46.094C42.7978 45.4505 44.6166 44.8267 46.6127 45.2863C48.7664 45.7788 48.0507 46.2778 49.3573 47.1052C50.5852 47.88 51.314 48.1295 52.6338 48.7139C55.8643 50.1387 58.3397 53.75 62.0101 55.6148C64.9255 57.0987 67.8343 58.4579 71.1895 57.5124C72.3846 57.1775 72.8442 56.4224 73.9736 56.0482C75.4181 55.5754 77.0202 55.838 78.5042 55.4506C81.8463 54.5708 85.7268 49.6265 87.631 52.7454C89.22 55.3456 92.6278 57.1447 92.7985 57.8801" stroke="#C4C740" stroke-width="0.88" stroke-miterlimit="10"/>
    <path d="M89.1214 66.7575C88.3598 66.2125 87.2764 65.7463 85.6874 63.1461C83.7767 60.0272 79.9027 64.9715 76.5605 65.8513C75.0766 66.2453 73.4679 65.9761 72.0299 66.4488C70.9006 66.8165 70.4475 67.5782 69.2459 67.9131C65.8906 68.8586 62.9753 67.4994 60.0665 66.0155C56.3961 64.1507 53.9207 60.5394 50.6902 59.1145C49.3704 58.5367 48.6415 58.2806 47.4137 57.5058C46.1005 56.6785 46.8227 56.1795 44.6691 55.687C42.6664 55.2274 40.8542 55.8578 38.9894 56.4947C34.8462 57.9195 34.1699 57.9655 30.0399 57.0331C28.9302 56.7836 26.6386 56.1532 25.4239 56.672C22.9156 57.7422 23.5591 59.6004 20.4796 58.5958C11.7205 55.7461 8.73289 44.9909 2.06176 39.6461L1.95014 42.0296C1.95014 42.0296 -1.30005 75.4247 31.55 89.3054C31.55 89.3054 64.7285 101.886 86.7445 70.441L89.128 66.7575H89.1214Z" fill="#191D20"/>
    <path d="M48.9435 28.7004H44.17V53.2773H48.9435V28.7004Z" fill="#191D20" stroke="#C4C740" stroke-width="0.88" stroke-miterlimit="10"/>
    <path d="M48.2213 13.0862H44.8923C43.0574 13.0862 41.5699 14.5737 41.5699 16.4086V28.7003C41.5699 30.5352 43.0574 32.0227 44.8923 32.0227H48.2213C50.0562 32.0227 51.5438 30.5352 51.5438 28.7003V16.4086C51.5438 14.5737 50.0562 13.0862 48.2213 13.0862Z" fill="#191D20" stroke="#C4C740" stroke-width="1.12" stroke-miterlimit="10"/>
</svg>
