<svg width="70" height="70" viewBox="0 0 70 70" fill="none" xmlns="http://www.w3.org/2000/svg">
    <path d="M34.8966 69.3534C53.9265 69.3534 69.3533 53.9266 69.3533 34.8967C69.3533 15.8668 53.9265 0.440002 34.8966 0.440002C15.8667 0.440002 0.439941 15.8668 0.439941 34.8967C0.439941 53.9266 15.8667 69.3534 34.8966 69.3534Z" stroke="#C4C740" stroke-width="0.88" stroke-miterlimit="10"/>
    <path d="M62.8403 44.3412H6.95288V46.2282H62.8403V44.3412Z" fill="#C4C740"/>
    <path d="M69.3967 33.7318H0.396729V36.0616H69.3967V33.7318Z" fill="#C4C740"/>
    <path d="M23.3728 38.2615L46.4258 29.6786" stroke="#161616" stroke-width="4" stroke-miterlimit="10"/>
    <path d="M65.9501 39.1472H3.84814V41.2459H65.9501V39.1472Z" fill="#C4C740"/>
    <path d="M3.55444 49.3907H65.9837C65.9837 49.3907 62.0605 60.4142 48.0718 66.7731C48.0718 66.7731 33.1252 73.6616 19.0306 65.3964C19.0306 65.3964 9.11912 61.6321 3.55444 49.3907Z" fill="#C4C740"/>
</svg>
