<svg width="70" height="70" viewBox="0 0 70 70" fill="none" xmlns="http://www.w3.org/2000/svg">
    <path d="M34.9399 69.44C53.9938 69.44 69.4399 53.9938 69.4399 34.94C69.4399 15.8862 53.9938 0.440002 34.9399 0.440002C15.8861 0.440002 0.439941 15.8862 0.439941 34.94C0.439941 53.9938 15.8861 69.44 34.9399 69.44Z" stroke="#C4C740" stroke-width="0.88" stroke-miterlimit="10"/>
    <mask id="mask0_347_176" style="mask-type:luminance" maskUnits="userSpaceOnUse" x="0" y="0" width="70" height="70">
        <path d="M34.9399 69.44C53.9938 69.44 69.4399 53.9938 69.4399 34.94C69.4399 15.8862 53.9938 0.440002 34.9399 0.440002C15.8861 0.440002 0.439941 15.8862 0.439941 34.94C0.439941 53.9938 15.8861 69.44 34.9399 69.44Z" fill="white"/>
    </mask>
    <g mask="url(#mask0_347_176)">
        <path d="M-7.16461 28.8313C-6.09825 22.7999 2.46643 18.1484 7.7886 16.3148C13.2459 14.433 20.3534 14.544 26.0133 15.4366C32.2088 16.4113 37.9894 19.1086 44.0112 20.7588C48.1608 21.8976 52.3732 22.8481 56.6532 23.3258C63.0851 24.0448 68.3976 22.4187 74.6414 21.3958C74.2988 23.1039 75.8332 24.7734 74.9792 26.3705C73.1745 29.7578 67.2106 29.5696 64.137 29.4297C59.1477 29.198 53.5602 28.3585 48.9039 26.5008C45.5552 25.1691 42.5685 23.3355 39.0075 22.5828C31.2534 20.9422 23.6103 23.3306 16.638 26.6938C11.6535 29.1016 6.88628 32.1028 1.2939 32.899C-1.35994 33.2801 -4.12476 33.3477 -6.59525 32.2138C-8.12483 31.5093 -9.12846 30.2307 -10.5422 29.4538C-10.2865 29.1595 -7.45895 29.0967 -7.16461 28.8362V28.8313Z" fill="#C4C740"/>
        <path d="M-8.86302 38.3948C-3.11141 42.3369 4.82117 43.4323 11.6054 42.2405C19.8564 40.7881 25.9796 31.2391 35.0364 33.3042C38.2307 34.0328 40.7446 36.5082 43.1524 38.5637C46.8726 41.7435 50.6941 44.2863 55.3166 46.0234C60.4361 47.9486 66.733 48.2285 71.9201 46.5011C75.8767 45.179 81.9227 42.5251 83.9975 38.6119C83.568 37.2223 82.8587 35.3453 82.2411 33.9363C79.1771 38.2163 73.7054 40.2187 68.61 41.3719C56.7159 44.0692 48.8702 36.4551 39.934 29.888C33.7626 25.3523 28.2378 30.8675 22.7564 33.9942C16.9034 37.3284 10.2205 38.5926 3.73551 35.6493C1.30844 34.5491 0.237256 33.3621 -2.53722 33.8736C-4.93051 34.3175 -9.71706 35.1957 -8.85336 38.3996L-8.86302 38.3948Z" fill="#C4C740"/>
        <path d="M-2.27662 45.6181C2.46652 47.8956 10.1048 47.5916 14.9541 45.8931C19.9867 44.132 24.1557 40.4166 29.7529 40.764C34.7855 41.0776 38.9834 45.097 43.109 47.5047C49.9269 51.4855 56.5229 52.1562 64.3445 50.1972C66.4145 49.6809 68.0889 48.1175 69.7536 49.5506C70.9695 50.5977 71.0467 52.1659 70.2795 53.488C68.914 55.8571 65.7583 58.0429 63.4664 59.4278C62.704 59.891 60.4603 61.6618 59.529 61.1117C58.5978 60.5617 59.3794 58.5303 59.0127 57.6907C57.7727 54.8486 52.8027 55.447 50.2068 55.1816C45.7773 54.728 41.5408 53.3722 38.1294 50.4433C33.6806 46.6266 29.5888 42.7664 23.5381 46.2454C19.041 48.8268 16.1845 54.1683 11.0795 55.8233C7.89002 56.8559 4.7054 56.3203 1.81512 54.7618C-0.896631 53.2998 -5.31649 49.2708 -2.28145 45.6181H-2.27662Z" fill="#C4C740"/>
        <path d="M5.79603 60.7064C14.3704 63.2204 19.982 55.3553 27.9967 55.6207C31.133 55.722 33.4925 57.8306 36.489 58.5013C41.3383 59.5918 45.6086 58.3035 50.4048 58.5641C54.9067 58.8101 56.8319 63.8235 54.2456 67.3025C52.0791 70.2169 46.1393 72.0456 42.5397 71.5486C36.074 70.656 31.3646 63.6739 24.2668 64.5714C19.6539 65.1553 16.1557 68.9671 11.0603 68.3785C8.59462 68.0938 5.96974 66.7717 4.99023 64.3157C4.50772 63.1046 4.15065 60.6582 5.80086 60.7064H5.79603Z" fill="#C4C740"/>
    </g>
</svg>
