<svg width="70" height="70" viewBox="0 0 70 70" fill="none" xmlns="http://www.w3.org/2000/svg">
    <path d="M34.9399 69.44C53.9938 69.44 69.4399 53.9938 69.4399 34.94C69.4399 15.8862 53.9938 0.440002 34.9399 0.440002C15.8861 0.440002 0.439941 15.8862 0.439941 34.94C0.439941 53.9938 15.8861 69.44 34.9399 69.44Z" stroke="#C4C740" stroke-width="0.88" stroke-miterlimit="10"/>
    <path d="M0.849609 30.0576H35.8701L65.801 50.4308" stroke="#C4C740" stroke-miterlimit="10"/>
    <path d="M12.1521 32.4433C14.1909 30.6697 16.8948 31.8023 19.2324 32.3421C21.2519 32.8096 23.0303 33.1808 25.1318 32.7759C26.5584 32.5012 28.1249 31.9999 29.4889 31.5469C30.7806 31.1179 31.6819 30.9829 31.4842 32.506C31.3493 32.5735 31.2047 32.6891 31.0794 32.747C30.9685 32.694 30.8577 32.5638 30.9396 32.6795C30.9396 32.6795 21.864 35.0653 13.0293 32.6795L12.1521 32.4385V32.4433Z" fill="#C4C740"/>
    <path d="M18.76 42.3143C22.1821 44.4976 25.8933 41.5045 29.4165 41.519C31.8843 41.5286 34.0243 42.8878 36.4968 42.6372C37.374 42.5456 38.0681 42.401 38.8344 41.9817C39.1477 41.813 39.4995 41.466 39.8466 41.4371C41.3648 41.3118 40.3334 42.7818 39.4513 43.071C38.444 43.4084 37.0752 43.365 36.01 43.524C33.3206 43.9289 30.6167 44.1843 27.4356 44.0253C24.6546 43.8855 21.1458 44.0638 18.76 42.3143Z" fill="#C4C740"/>
    <path d="M29.3439 39.4995C22.5432 39.4995 17.0342 40.5406 17.0342 41.8275C17.0342 43.1143 22.548 44.1554 29.3439 44.1554C36.1398 44.1554 41.6536 43.1143 41.6536 41.8275C41.6536 40.5406 36.1398 39.4995 29.3439 39.4995ZM29.3439 43.8518C23.43 43.8518 18.6344 42.9457 18.6344 41.8275C18.6344 40.7093 23.43 39.8032 29.3439 39.8032C35.2578 39.8032 40.0535 40.7093 40.0535 41.8275C40.0535 42.9457 35.2578 43.8518 29.3439 43.8518Z" fill="#C4C740"/>
    <path d="M26.375 55.7904C29.6428 53.713 32.6841 55.7566 36.1351 56.0458C37.4653 56.1567 38.5112 55.7133 39.6969 55.1783C40.7042 54.7252 41.6585 54.5999 42.7719 54.6866C43.8853 54.7734 44.9601 55.2361 46.0734 55.3903C47.3314 55.5638 48.5653 55.6747 49.8281 55.5397C51.3174 55.3759 52.7344 54.8746 54.2285 54.7156C54.5996 54.677 55.0334 54.6095 55.3467 54.5131C56.3733 54.9565 54.6093 56.041 54.2333 56.1519C53.4959 56.3736 52.7007 56.4025 51.9536 56.6242C49.7317 57.2797 47.1772 57.5303 44.8685 57.6508C40.7669 57.8677 36.7568 57.699 32.6793 57.1688C31.3635 56.9953 30.0718 56.7736 28.7801 56.4796C28.3126 56.3736 26.6208 56.2531 26.3798 55.7904H26.375Z" fill="#C4C740"/>
    <path d="M40.7524 51.8092C31.8743 51.8092 24.6736 53.1684 24.6736 54.8505C24.6736 56.5326 31.8695 57.8918 40.7524 57.8918C49.6352 57.8918 56.8312 56.5326 56.8312 54.8505C56.8312 53.1684 49.6352 51.8092 40.7524 51.8092ZM40.7524 57.4966C33.0263 57.4966 26.7654 56.3109 26.7654 54.8505C26.7654 53.3901 33.0263 52.2045 40.7524 52.2045C48.4785 52.2045 54.7394 53.3901 54.7394 54.8505C54.7394 56.3109 48.4785 57.4966 40.7524 57.4966Z" fill="#C4C740"/>
    <path d="M21.758 29.8455C15.8682 29.8455 11.0918 30.7468 11.0918 31.8602C11.0918 32.9736 15.8682 33.8749 21.758 33.8749C27.6477 33.8749 32.4242 32.9736 32.4242 31.8602C32.4242 30.7468 27.6477 29.8455 21.758 29.8455ZM21.758 33.6146C16.6345 33.6146 12.4799 32.829 12.4799 31.8602C12.4799 30.8914 16.6345 30.1058 21.758 30.1058C26.8814 30.1058 31.0361 30.8914 31.0361 31.8602C31.0361 32.829 26.8814 33.6146 21.758 33.6146Z" fill="#C4C740"/>
</svg>
