<svg width="70" height="70" viewBox="0 0 70 70" fill="none" xmlns="http://www.w3.org/2000/svg">
    <path d="M34.9399 69.44C53.9938 69.44 69.4399 53.9938 69.4399 34.94C69.4399 15.8862 53.9938 0.440002 34.9399 0.440002C15.8861 0.440002 0.439941 15.8862 0.439941 34.94C0.439941 53.9938 15.8861 69.44 34.9399 69.44Z" stroke="#C4C740" stroke-width="0.88" stroke-miterlimit="10"/>
    <mask id="mask0_347_118" style="mask-type:luminance" maskUnits="userSpaceOnUse" x="0" y="29" width="70" height="41">
        <path d="M0.27125 34.5785C0.27125 34.5785 -1.00118 57.0242 21.9217 67.0542C21.9217 67.0542 34.8676 72.997 49.8331 65.9939C49.8331 65.9939 64.2105 60.1571 68.4567 42.4878C68.4567 42.4878 69.9412 34.6363 68.9869 31.6095L68.8278 31.3444C68.8278 31.3444 65.801 31.4505 64.4226 31.8216C64.4226 31.8216 61.9404 32.453 59.8582 33.094C58.8509 33.4025 57.7905 33.8363 56.5133 34.3134C54.5757 35.0412 49.5101 36.9643 40.2224 36.5932C40.2224 36.5932 30.7756 36.4341 22.0759 32.1349C22.0759 32.1349 15.2319 29.2719 10.8266 29.9612C10.8266 29.9612 7.85276 30.0142 4.08851 32.559L0.266426 34.5737L0.27125 34.5785Z" fill="white"/>
    </mask>
    <g mask="url(#mask0_347_118)">
        <path d="M11.27 -1.29028V71.4017" stroke="#C4C740" stroke-width="1.02" stroke-miterlimit="10"/>
        <path d="M23.864 -1.29028V71.4017" stroke="#C4C740" stroke-width="1.02" stroke-miterlimit="10"/>
        <path d="M36.4583 -1.29028V71.4017" stroke="#C4C740" stroke-width="1.02" stroke-miterlimit="10"/>
        <path d="M49.0522 -1.29028V71.4017" stroke="#C4C740" stroke-width="1.02" stroke-miterlimit="10"/>
        <path d="M61.6462 -1.29028V71.4017" stroke="#C4C740" stroke-width="1.02" stroke-miterlimit="10"/>
        <path d="M74.6115 35.2148H-1.5603" stroke="#C4C740" stroke-width="1.04" stroke-miterlimit="10"/>
        <path d="M74.6117 47.2786H-1.53125" stroke="#C4C740" stroke-width="1.04" stroke-miterlimit="10"/>
        <path d="M74.6115 59.3426H-1.50732" stroke="#C4C740" stroke-width="1.04" stroke-miterlimit="10"/>
    </g>
    <path d="M0.483398 34.8966C2.24744 34.3761 6.5033 31.2673 9.16864 30.4335C15.5549 28.4381 20.6445 31.7782 26.5343 33.7833C34.2845 36.4197 41.4274 37.3162 49.6259 36.1305C56.2965 35.1665 62.3983 31.1517 69.1412 31.2962" stroke="#C4C740" stroke-width="0.88" stroke-miterlimit="10"/>
    <path d="M0.27124 34.8966C1.20146 34.1496 1.84731 32.9928 2.845 32.2168C4.2331 31.1372 5.68866 30.2504 7.27919 29.5322C9.61679 28.4767 12.5665 28.0622 15.1017 28.5586C17.661 29.0599 19.9552 30.3419 22.4374 31.0794C27.8211 32.6795 33.0361 34.1544 38.6897 34.5689C45.3555 35.0605 51.1826 31.0167 57.5881 29.8021C60.1908 29.3057 62.5332 29.2864 65.1118 29.913C66.3504 30.2118 68.1964 30.5251 69.1459 31.2914C69.1459 31.2914 67.2373 30.4432 53.9684 35.1135C53.9684 35.1135 46.6472 38.1934 34.1254 36.0678C34.1254 36.0678 22.6639 32.6699 18.6298 30.8673C18.6298 30.8673 12.8991 28.3224 7.48645 31.2914L1.64969 34.3713L0.27124 34.9014V34.8966Z" fill="#C4C740"/>
</svg>
