<svg width="145" height="145" viewBox="0 0 145 145" fill="none" xmlns="http://www.w3.org/2000/svg">
<path d="M72.0199 143.6C111.552 143.6 143.6 111.552 143.6 72.0199C143.6 32.4874 111.552 0.439941 72.0199 0.439941C32.4874 0.439941 0.439941 32.4874 0.439941 72.0199C0.439941 111.552 32.4874 143.6 72.0199 143.6Z" fill="#27292E" stroke="#C4C740" stroke-width="0.88" stroke-miterlimit="10"/>
<mask id="mask0_149_595" style="mask-type:luminance" maskUnits="userSpaceOnUse" x="0" y="61" width="144" height="83">
<path d="M0.0898371 71.27C0.0898371 71.27 -2.55018 117.84 45.0098 138.65C45.0098 138.65 71.8698 150.98 102.92 136.45C102.92 136.45 132.75 124.34 141.56 87.68C141.56 87.68 144.64 71.39 142.66 65.11L142.33 64.56C142.33 64.56 136.05 64.78 133.19 65.55C133.19 65.55 128.04 66.86 123.72 68.19C121.63 68.83 119.43 69.73 116.78 70.72C112.76 72.23 102.25 76.22 82.9798 75.45C82.9798 75.45 63.3798 75.12 45.3298 66.2C45.3298 66.2 31.1298 60.26 21.9898 61.69C21.9898 61.69 15.8198 61.8 8.00982 67.08L0.0798274 71.26L0.0898371 71.27Z" fill="white"/>
</mask>
<g mask="url(#mask0_149_595)">
<path d="M22.9099 -3.15002V147.67" stroke="#C4C740" stroke-width="1.02" stroke-miterlimit="10"/>
<path d="M49.0398 -3.15002V147.67" stroke="#C4C740" stroke-width="1.02" stroke-miterlimit="10"/>
<path d="M75.1699 -3.15002V147.67" stroke="#C4C740" stroke-width="1.02" stroke-miterlimit="10"/>
<path d="M101.3 -3.15002V147.67" stroke="#C4C740" stroke-width="1.02" stroke-miterlimit="10"/>
<path d="M127.43 -3.15002V147.67" stroke="#C4C740" stroke-width="1.02" stroke-miterlimit="10"/>
<path d="M154.33 72.59H-3.71021" stroke="#C4C740" stroke-width="1.04" stroke-miterlimit="10"/>
<path d="M154.33 97.62H-3.65015" stroke="#C4C740" stroke-width="1.04" stroke-miterlimit="10"/>
<path d="M154.33 122.65H-3.6001" stroke="#C4C740" stroke-width="1.04" stroke-miterlimit="10"/>
</g>
<path d="M0.529785 71.93C4.18979 70.85 13.0198 64.4 18.5498 62.67C31.7998 58.53 42.3598 65.46 54.5798 69.62C70.6598 75.09 85.4798 76.95 102.49 74.49C116.33 72.49 128.99 64.16 142.98 64.46" stroke="#C4C740" stroke-width="0.88" stroke-miterlimit="10"/>
<path d="M0.0898438 71.93C2.01984 70.38 3.35984 67.98 5.42984 66.37C8.30984 64.13 11.3298 62.29 14.6298 60.8C19.4798 58.61 25.5998 57.75 30.8598 58.78C36.1698 59.82 40.9298 62.48 46.0798 64.01C57.2498 67.33 68.0698 70.39 79.7998 71.25C93.6298 72.27 105.72 63.88 119.01 61.36C124.41 60.33 129.27 60.29 134.62 61.59C137.19 62.21 141.02 62.86 142.99 64.45C142.99 64.45 139.03 62.69 111.5 72.38C111.5 72.38 96.3098 78.77 70.3298 74.36C70.3298 74.36 46.5498 67.31 38.1798 63.57C38.1798 63.57 26.2898 58.29 15.0598 64.45L2.94983 70.84L0.0898438 71.94V71.93Z" fill="#C4C740"/>
</svg>
