<svg width="145" height="145" viewBox="0 0 145 145" fill="none" xmlns="http://www.w3.org/2000/svg">
<path d="M72.02 143.6C111.553 143.6 143.6 111.552 143.6 72.0199C143.6 32.4874 111.553 0.439941 72.02 0.439941C32.4874 0.439941 0.439941 32.4874 0.439941 72.0199C0.439941 111.552 32.4874 143.6 72.02 143.6Z" fill="#27292E" stroke="#C4C740" stroke-width="0.88" stroke-miterlimit="10"/>
<path d="M130.88 65.7398C130.26 61.1698 120.87 64.0498 119.96 62.7598L117.62 55.4598C119.16 53.7198 125.41 50.8598 125.4 48.5098C125.4 47.1098 118.42 37.5798 117.02 36.6898C114.05 34.8098 110.48 40.1798 108.17 41.1298C106.79 41.6998 102.33 37.3498 100.76 36.5998C100.99 33.9598 104.47 28.5898 102.81 26.2798C102.12 25.3198 94.4898 22.8098 90.5698 22.0298V56.1498C91.0798 56.4598 91.5898 56.7998 92.0998 57.2098C102.4 65.5998 100.57 81.1798 90.5698 87.5498V121.98C93.5598 121.14 102.45 118.04 102.82 117.56C104.49 115.4 100.96 109.81 100.88 107.21C100.97 106.85 106.27 102.92 106.74 102.72C109.16 101.65 112.96 108.45 116.72 107.32C117.76 107.01 125.18 96.9498 125.37 95.7098C125.79 92.8998 119.37 90.1098 117.54 88.3898L120.1 80.3698C122.26 79.8098 129.67 81.2998 130.63 79.3198C131.04 78.4698 131.1 67.2698 130.9 65.7398H130.88Z" fill="#C4C740"/>
<path d="M74.26 32.1597H22.52V36.3397H74.26V32.1597Z" fill="#C4C740"/>
<path d="M86.3699 53.5198H34.6299V57.6998H86.3699V53.5198Z" fill="#C4C740"/>
<path d="M74.26 89.8499H22.52V94.0298H74.26V89.8499Z" fill="#C4C740"/>
<path d="M86.3699 111.21H34.6299V115.39H86.3699V111.21Z" fill="#C4C740"/>
<path d="M64.7898 72.2297H13.0498V76.4097H64.7898V72.2297Z" fill="#C4C740"/>
</svg>
