<svg width="249" height="288" viewBox="0 0 249 288" fill="none" xmlns="http://www.w3.org/2000/svg">
    <rect width="249" height="288" fill="#D9D9D9"/>
    <path d="M42.704 119.848C43.92 119.848 44.9707 120.077 45.856 120.536C46.752 120.984 47.4347 121.629 47.904 122.472C48.384 123.315 48.624 124.307 48.624 125.448C48.624 126.589 48.384 127.581 47.904 128.424C47.4347 129.256 46.752 129.896 45.856 130.344C44.9707 130.781 43.92 131 42.704 131H39.232V119.848H42.704ZM42.704 129.8C44.144 129.8 45.2427 129.421 46 128.664C46.7573 127.896 47.136 126.824 47.136 125.448C47.136 124.061 46.752 122.979 45.984 122.2C45.2267 121.421 44.1333 121.032 42.704 121.032H40.688V129.8H42.704ZM50.0005 126.584C50.0005 125.688 50.1818 124.904 50.5445 124.232C50.9072 123.549 51.4032 123.021 52.0325 122.648C52.6725 122.275 53.3818 122.088 54.1605 122.088C54.9285 122.088 55.5952 122.253 56.1605 122.584C56.7258 122.915 57.1472 123.331 57.4245 123.832V122.232H58.8965V131H57.4245V129.368C57.1365 129.88 56.7045 130.307 56.1285 130.648C55.5632 130.979 54.9018 131.144 54.1445 131.144C53.3658 131.144 52.6618 130.952 52.0325 130.568C51.4032 130.184 50.9072 129.645 50.5445 128.952C50.1818 128.259 50.0005 127.469 50.0005 126.584ZM57.4245 126.6C57.4245 125.939 57.2912 125.363 57.0245 124.872C56.7578 124.381 56.3952 124.008 55.9365 123.752C55.4885 123.485 54.9925 123.352 54.4485 123.352C53.9045 123.352 53.4085 123.48 52.9605 123.736C52.5125 123.992 52.1552 124.365 51.8885 124.856C51.6218 125.347 51.4885 125.923 51.4885 126.584C51.4885 127.256 51.6218 127.843 51.8885 128.344C52.1552 128.835 52.5125 129.213 52.9605 129.48C53.4085 129.736 53.9045 129.864 54.4485 129.864C54.9925 129.864 55.4885 129.736 55.9365 129.48C56.3952 129.213 56.7578 128.835 57.0245 128.344C57.2912 127.843 57.4245 127.261 57.4245 126.6ZM63.133 123.432V128.6C63.133 129.027 63.2237 129.331 63.405 129.512C63.5863 129.683 63.901 129.768 64.349 129.768H65.421V131H64.109C63.2983 131 62.6903 130.813 62.285 130.44C61.8797 130.067 61.677 129.453 61.677 128.6V123.432H60.541V122.232H61.677V120.024H63.133V122.232H65.421V123.432H63.133ZM66.6411 126.584C66.6411 125.688 66.8225 124.904 67.1851 124.232C67.5478 123.549 68.0438 123.021 68.6731 122.648C69.3131 122.275 70.0225 122.088 70.8011 122.088C71.5691 122.088 72.2358 122.253 72.8011 122.584C73.3665 122.915 73.7878 123.331 74.0651 123.832V122.232H75.5371V131H74.0651V129.368C73.7771 129.88 73.3451 130.307 72.7691 130.648C72.2038 130.979 71.5425 131.144 70.7851 131.144C70.0065 131.144 69.3025 130.952 68.6731 130.568C68.0438 130.184 67.5478 129.645 67.1851 128.952C66.8225 128.259 66.6411 127.469 66.6411 126.584ZM74.0651 126.6C74.0651 125.939 73.9318 125.363 73.6651 124.872C73.3985 124.381 73.0358 124.008 72.5771 123.752C72.1291 123.485 71.6331 123.352 71.0891 123.352C70.5451 123.352 70.0491 123.48 69.6011 123.736C69.1531 123.992 68.7958 124.365 68.5291 124.856C68.2625 125.347 68.1291 125.923 68.1291 126.584C68.1291 127.256 68.2625 127.843 68.5291 128.344C68.7958 128.835 69.1531 129.213 69.6011 129.48C70.0491 129.736 70.5451 129.864 71.0891 129.864C71.6331 129.864 72.1291 129.736 72.5771 129.48C73.0358 129.213 73.3985 128.835 73.6651 128.344C73.9318 127.843 74.0651 127.261 74.0651 126.6ZM83.0153 120.808C82.7379 120.808 82.5033 120.712 82.3113 120.52C82.1193 120.328 82.0233 120.093 82.0233 119.816C82.0233 119.539 82.1193 119.304 82.3113 119.112C82.5033 118.92 82.7379 118.824 83.0153 118.824C83.2819 118.824 83.5059 118.92 83.6873 119.112C83.8793 119.304 83.9753 119.539 83.9753 119.816C83.9753 120.093 83.8793 120.328 83.6873 120.52C83.5059 120.712 83.2819 120.808 83.0153 120.808ZM83.7193 122.232V131H82.2633V122.232H83.7193ZM90.4728 122.072C91.5394 122.072 92.4034 122.397 93.0648 123.048C93.7261 123.688 94.0568 124.616 94.0568 125.832V131H92.6168V126.04C92.6168 125.165 92.3981 124.499 91.9608 124.04C91.5234 123.571 90.9261 123.336 90.1688 123.336C89.4008 123.336 88.7874 123.576 88.3288 124.056C87.8808 124.536 87.6568 125.235 87.6568 126.152V131H86.2008V122.232H87.6568V123.48C87.9448 123.032 88.3341 122.685 88.8248 122.44C89.3261 122.195 89.8754 122.072 90.4728 122.072ZM100.003 123.432H98.1631V131H96.7071V123.432H95.5711V122.232H96.7071V121.608C96.7071 120.627 96.9578 119.912 97.4591 119.464C97.9711 119.005 98.7871 118.776 99.9071 118.776V119.992C99.2671 119.992 98.8138 120.12 98.5471 120.376C98.2911 120.621 98.1631 121.032 98.1631 121.608V122.232H100.003V123.432ZM105.525 131.144C104.703 131.144 103.957 130.957 103.285 130.584C102.623 130.211 102.101 129.683 101.717 129C101.343 128.307 101.157 127.507 101.157 126.6C101.157 125.704 101.349 124.915 101.733 124.232C102.127 123.539 102.661 123.011 103.333 122.648C104.005 122.275 104.757 122.088 105.589 122.088C106.421 122.088 107.173 122.275 107.845 122.648C108.517 123.011 109.045 123.533 109.429 124.216C109.823 124.899 110.021 125.693 110.021 126.6C110.021 127.507 109.818 128.307 109.413 129C109.018 129.683 108.479 130.211 107.797 130.584C107.114 130.957 106.357 131.144 105.525 131.144ZM105.525 129.864C106.047 129.864 106.538 129.741 106.997 129.496C107.455 129.251 107.823 128.883 108.101 128.392C108.389 127.901 108.533 127.304 108.533 126.6C108.533 125.896 108.394 125.299 108.117 124.808C107.839 124.317 107.477 123.955 107.029 123.72C106.581 123.475 106.095 123.352 105.573 123.352C105.039 123.352 104.549 123.475 104.101 123.72C103.663 123.955 103.311 124.317 103.045 124.808C102.778 125.299 102.645 125.896 102.645 126.6C102.645 127.315 102.773 127.917 103.029 128.408C103.295 128.899 103.647 129.267 104.085 129.512C104.522 129.747 105.002 129.864 105.525 129.864ZM115.551 122.088C116.308 122.088 116.97 122.253 117.535 122.584C118.111 122.915 118.538 123.331 118.815 123.832V122.232H120.287V131.192C120.287 131.992 120.116 132.701 119.775 133.32C119.434 133.949 118.943 134.44 118.303 134.792C117.674 135.144 116.938 135.32 116.095 135.32C114.943 135.32 113.983 135.048 113.215 134.504C112.447 133.96 111.994 133.219 111.855 132.28H113.295C113.455 132.813 113.786 133.24 114.287 133.56C114.788 133.891 115.391 134.056 116.095 134.056C116.895 134.056 117.546 133.805 118.047 133.304C118.559 132.803 118.815 132.099 118.815 131.192V129.352C118.527 129.864 118.1 130.291 117.535 130.632C116.97 130.973 116.308 131.144 115.551 131.144C114.772 131.144 114.063 130.952 113.423 130.568C112.794 130.184 112.298 129.645 111.935 128.952C111.572 128.259 111.391 127.469 111.391 126.584C111.391 125.688 111.572 124.904 111.935 124.232C112.298 123.549 112.794 123.021 113.423 122.648C114.063 122.275 114.772 122.088 115.551 122.088ZM118.815 126.6C118.815 125.939 118.682 125.363 118.415 124.872C118.148 124.381 117.786 124.008 117.327 123.752C116.879 123.485 116.383 123.352 115.839 123.352C115.295 123.352 114.799 123.48 114.351 123.736C113.903 123.992 113.546 124.365 113.279 124.856C113.012 125.347 112.879 125.923 112.879 126.584C112.879 127.256 113.012 127.843 113.279 128.344C113.546 128.835 113.903 129.213 114.351 129.48C114.799 129.736 115.295 129.864 115.839 129.864C116.383 129.864 116.879 129.736 117.327 129.48C117.786 129.213 118.148 128.835 118.415 128.344C118.682 127.843 118.815 127.261 118.815 126.6ZM124.204 123.656C124.46 123.155 124.822 122.765 125.292 122.488C125.772 122.211 126.353 122.072 127.036 122.072V123.576H126.652C125.02 123.576 124.204 124.461 124.204 126.232V131H122.748V122.232H124.204V123.656ZM128.172 126.584C128.172 125.688 128.354 124.904 128.716 124.232C129.079 123.549 129.575 123.021 130.204 122.648C130.844 122.275 131.554 122.088 132.332 122.088C133.1 122.088 133.767 122.253 134.332 122.584C134.898 122.915 135.319 123.331 135.596 123.832V122.232H137.068V131H135.596V129.368C135.308 129.88 134.876 130.307 134.3 130.648C133.735 130.979 133.074 131.144 132.316 131.144C131.538 131.144 130.834 130.952 130.204 130.568C129.575 130.184 129.079 129.645 128.716 128.952C128.354 128.259 128.172 127.469 128.172 126.584ZM135.596 126.6C135.596 125.939 135.463 125.363 135.196 124.872C134.93 124.381 134.567 124.008 134.108 123.752C133.66 123.485 133.164 123.352 132.62 123.352C132.076 123.352 131.58 123.48 131.132 123.736C130.684 123.992 130.327 124.365 130.06 124.856C129.794 125.347 129.66 125.923 129.66 126.584C129.66 127.256 129.794 127.843 130.06 128.344C130.327 128.835 130.684 129.213 131.132 129.48C131.58 129.736 132.076 129.864 132.62 129.864C133.164 129.864 133.66 129.736 134.108 129.48C134.567 129.213 134.93 128.835 135.196 128.344C135.463 127.843 135.596 127.261 135.596 126.6ZM140.985 123.848C141.273 123.347 141.7 122.931 142.265 122.6C142.841 122.259 143.508 122.088 144.265 122.088C145.044 122.088 145.748 122.275 146.377 122.648C147.017 123.021 147.518 123.549 147.881 124.232C148.244 124.904 148.425 125.688 148.425 126.584C148.425 127.469 148.244 128.259 147.881 128.952C147.518 129.645 147.017 130.184 146.377 130.568C145.748 130.952 145.044 131.144 144.265 131.144C143.518 131.144 142.857 130.979 142.281 130.648C141.716 130.307 141.284 129.885 140.985 129.384V135.16H139.529V122.232H140.985V123.848ZM146.937 126.584C146.937 125.923 146.804 125.347 146.537 124.856C146.27 124.365 145.908 123.992 145.449 123.736C145.001 123.48 144.505 123.352 143.961 123.352C143.428 123.352 142.932 123.485 142.473 123.752C142.025 124.008 141.662 124.387 141.385 124.888C141.118 125.379 140.985 125.949 140.985 126.6C140.985 127.261 141.118 127.843 141.385 128.344C141.662 128.835 142.025 129.213 142.473 129.48C142.932 129.736 143.428 129.864 143.961 129.864C144.505 129.864 145.001 129.736 145.449 129.48C145.908 129.213 146.27 128.835 146.537 128.344C146.804 127.843 146.937 127.256 146.937 126.584ZM154.693 122.072C155.355 122.072 155.952 122.216 156.485 122.504C157.019 122.781 157.435 123.203 157.733 123.768C158.043 124.333 158.197 125.021 158.197 125.832V131H156.757V126.04C156.757 125.165 156.539 124.499 156.101 124.04C155.664 123.571 155.067 123.336 154.309 123.336C153.541 123.336 152.928 123.576 152.469 124.056C152.021 124.536 151.797 125.235 151.797 126.152V131H150.341V119.16H151.797V123.48C152.085 123.032 152.48 122.685 152.981 122.44C153.493 122.195 154.064 122.072 154.693 122.072ZM161.328 120.808C161.05 120.808 160.816 120.712 160.624 120.52C160.432 120.328 160.336 120.093 160.336 119.816C160.336 119.539 160.432 119.304 160.624 119.112C160.816 118.92 161.05 118.824 161.328 118.824C161.594 118.824 161.818 118.92 162 119.112C162.192 119.304 162.288 119.539 162.288 119.816C162.288 120.093 162.192 120.328 162 120.52C161.818 120.712 161.594 120.808 161.328 120.808ZM162.032 122.232V131H160.576V122.232H162.032ZM163.969 126.6C163.969 125.693 164.151 124.904 164.513 124.232C164.876 123.549 165.377 123.021 166.017 122.648C166.668 122.275 167.409 122.088 168.241 122.088C169.319 122.088 170.204 122.349 170.897 122.872C171.601 123.395 172.065 124.12 172.289 125.048H170.721C170.572 124.515 170.279 124.093 169.841 123.784C169.415 123.475 168.881 123.32 168.241 123.32C167.409 123.32 166.737 123.608 166.225 124.184C165.713 124.749 165.457 125.555 165.457 126.6C165.457 127.656 165.713 128.472 166.225 129.048C166.737 129.624 167.409 129.912 168.241 129.912C168.881 129.912 169.415 129.763 169.841 129.464C170.268 129.165 170.561 128.739 170.721 128.184H172.289C172.055 129.08 171.585 129.8 170.881 130.344C170.177 130.877 169.297 131.144 168.241 131.144C167.409 131.144 166.668 130.957 166.017 130.584C165.377 130.211 164.876 129.683 164.513 129C164.151 128.317 163.969 127.517 163.969 126.6ZM183.938 115.928L179.554 133.72H178.114L182.482 115.928H183.938ZM39.984 144.808C39.7067 144.808 39.472 144.712 39.28 144.52C39.088 144.328 38.992 144.093 38.992 143.816C38.992 143.539 39.088 143.304 39.28 143.112C39.472 142.92 39.7067 142.824 39.984 142.824C40.2507 142.824 40.4747 142.92 40.656 143.112C40.848 143.304 40.944 143.539 40.944 143.816C40.944 144.093 40.848 144.328 40.656 144.52C40.4747 144.712 40.2507 144.808 39.984 144.808ZM40.688 146.232V155H39.232V146.232H40.688ZM42.6255 150.6C42.6255 149.693 42.8068 148.904 43.1695 148.232C43.5322 147.549 44.0335 147.021 44.6735 146.648C45.3242 146.275 46.0655 146.088 46.8975 146.088C47.9748 146.088 48.8602 146.349 49.5535 146.872C50.2575 147.395 50.7215 148.12 50.9455 149.048H49.3775C49.2282 148.515 48.9348 148.093 48.4975 147.784C48.0708 147.475 47.5375 147.32 46.8975 147.32C46.0655 147.32 45.3935 147.608 44.8815 148.184C44.3695 148.749 44.1135 149.555 44.1135 150.6C44.1135 151.656 44.3695 152.472 44.8815 153.048C45.3935 153.624 46.0655 153.912 46.8975 153.912C47.5375 153.912 48.0708 153.763 48.4975 153.464C48.9242 153.165 49.2175 152.739 49.3775 152.184H50.9455C50.7108 153.08 50.2415 153.8 49.5375 154.344C48.8335 154.877 47.9535 155.144 46.8975 155.144C46.0655 155.144 45.3242 154.957 44.6735 154.584C44.0335 154.211 43.5322 153.683 43.1695 153C42.8068 152.317 42.6255 151.517 42.6255 150.6ZM56.7123 155.144C55.8909 155.144 55.1443 154.957 54.4723 154.584C53.8109 154.211 53.2883 153.683 52.9043 153C52.5309 152.307 52.3443 151.507 52.3443 150.6C52.3443 149.704 52.5363 148.915 52.9203 148.232C53.3149 147.539 53.8483 147.011 54.5203 146.648C55.1923 146.275 55.9443 146.088 56.7763 146.088C57.6083 146.088 58.3603 146.275 59.0323 146.648C59.7043 147.011 60.2323 147.533 60.6163 148.216C61.0109 148.899 61.2083 149.693 61.2083 150.6C61.2083 151.507 61.0056 152.307 60.6003 153C60.2056 153.683 59.6669 154.211 58.9843 154.584C58.3016 154.957 57.5443 155.144 56.7123 155.144ZM56.7123 153.864C57.2349 153.864 57.7256 153.741 58.1843 153.496C58.6429 153.251 59.0109 152.883 59.2883 152.392C59.5763 151.901 59.7203 151.304 59.7203 150.6C59.7203 149.896 59.5816 149.299 59.3043 148.808C59.0269 148.317 58.6643 147.955 58.2163 147.72C57.7683 147.475 57.2829 147.352 56.7603 147.352C56.2269 147.352 55.7363 147.475 55.2883 147.72C54.8509 147.955 54.4989 148.317 54.2323 148.808C53.9656 149.299 53.8323 149.896 53.8323 150.6C53.8323 151.315 53.9603 151.917 54.2163 152.408C54.4829 152.899 54.8349 153.267 55.2723 153.512C55.7096 153.747 56.1896 153.864 56.7123 153.864ZM67.3946 146.072C68.4613 146.072 69.3253 146.397 69.9866 147.048C70.648 147.688 70.9786 148.616 70.9786 149.832V155H69.5386V150.04C69.5386 149.165 69.32 148.499 68.8826 148.04C68.4453 147.571 67.848 147.336 67.0906 147.336C66.3226 147.336 65.7093 147.576 65.2506 148.056C64.8026 148.536 64.5786 149.235 64.5786 150.152V155H63.1226V146.232H64.5786V147.48C64.8666 147.032 65.256 146.685 65.7466 146.44C66.248 146.195 66.7973 146.072 67.3946 146.072ZM77.181 155.144C76.3597 155.144 75.613 154.957 74.941 154.584C74.2797 154.211 73.757 153.683 73.373 153C72.9997 152.307 72.813 151.507 72.813 150.6C72.813 149.704 73.005 148.915 73.389 148.232C73.7837 147.539 74.317 147.011 74.989 146.648C75.661 146.275 76.413 146.088 77.245 146.088C78.077 146.088 78.829 146.275 79.501 146.648C80.173 147.011 80.701 147.533 81.085 148.216C81.4797 148.899 81.677 149.693 81.677 150.6C81.677 151.507 81.4743 152.307 81.069 153C80.6743 153.683 80.1357 154.211 79.453 154.584C78.7703 154.957 78.013 155.144 77.181 155.144ZM77.181 153.864C77.7037 153.864 78.1943 153.741 78.653 153.496C79.1117 153.251 79.4797 152.883 79.757 152.392C80.045 151.901 80.189 151.304 80.189 150.6C80.189 149.896 80.0503 149.299 79.773 148.808C79.4957 148.317 79.133 147.955 78.685 147.72C78.237 147.475 77.7517 147.352 77.229 147.352C76.6957 147.352 76.205 147.475 75.757 147.72C75.3197 147.955 74.9677 148.317 74.701 148.808C74.4343 149.299 74.301 149.896 74.301 150.6C74.301 151.315 74.429 151.917 74.685 152.408C74.9517 152.899 75.3037 153.267 75.741 153.512C76.1783 153.747 76.6583 153.864 77.181 153.864ZM87.2074 146.088C87.9647 146.088 88.626 146.253 89.1914 146.584C89.7674 146.915 90.194 147.331 90.4714 147.832V146.232H91.9434V155.192C91.9434 155.992 91.7727 156.701 91.4314 157.32C91.09 157.949 90.5994 158.44 89.9594 158.792C89.33 159.144 88.594 159.32 87.7514 159.32C86.5994 159.32 85.6394 159.048 84.8714 158.504C84.1034 157.96 83.65 157.219 83.5114 156.28H84.9514C85.1114 156.813 85.442 157.24 85.9434 157.56C86.4447 157.891 87.0474 158.056 87.7514 158.056C88.5514 158.056 89.202 157.805 89.7034 157.304C90.2154 156.803 90.4714 156.099 90.4714 155.192V153.352C90.1834 153.864 89.7567 154.291 89.1914 154.632C88.626 154.973 87.9647 155.144 87.2074 155.144C86.4287 155.144 85.7194 154.952 85.0794 154.568C84.45 154.184 83.954 153.645 83.5914 152.952C83.2287 152.259 83.0474 151.469 83.0474 150.584C83.0474 149.688 83.2287 148.904 83.5914 148.232C83.954 147.549 84.45 147.021 85.0794 146.648C85.7194 146.275 86.4287 146.088 87.2074 146.088ZM90.4714 150.6C90.4714 149.939 90.338 149.363 90.0714 148.872C89.8047 148.381 89.442 148.008 88.9834 147.752C88.5354 147.485 88.0394 147.352 87.4954 147.352C86.9514 147.352 86.4554 147.48 86.0074 147.736C85.5594 147.992 85.202 148.365 84.9354 148.856C84.6687 149.347 84.5354 149.923 84.5354 150.584C84.5354 151.256 84.6687 151.843 84.9354 152.344C85.202 152.835 85.5594 153.213 86.0074 153.48C86.4554 153.736 86.9514 153.864 87.4954 153.864C88.0394 153.864 88.5354 153.736 88.9834 153.48C89.442 153.213 89.8047 152.835 90.0714 152.344C90.338 151.843 90.4714 151.261 90.4714 150.6ZM95.8599 147.656C96.1159 147.155 96.4785 146.765 96.9479 146.488C97.4279 146.211 98.0092 146.072 98.6919 146.072V147.576H98.3079C96.6759 147.576 95.8599 148.461 95.8599 150.232V155H94.4039V146.232H95.8599V147.656ZM99.8286 150.584C99.8286 149.688 100.01 148.904 100.373 148.232C100.735 147.549 101.231 147.021 101.861 146.648C102.501 146.275 103.21 146.088 103.989 146.088C104.757 146.088 105.423 146.253 105.989 146.584C106.554 146.915 106.975 147.331 107.253 147.832V146.232H108.725V155H107.253V153.368C106.965 153.88 106.533 154.307 105.957 154.648C105.391 154.979 104.73 155.144 103.973 155.144C103.194 155.144 102.49 154.952 101.861 154.568C101.231 154.184 100.735 153.645 100.373 152.952C100.01 152.259 99.8286 151.469 99.8286 150.584ZM107.253 150.6C107.253 149.939 107.119 149.363 106.853 148.872C106.586 148.381 106.223 148.008 105.765 147.752C105.317 147.485 104.821 147.352 104.277 147.352C103.733 147.352 103.237 147.48 102.789 147.736C102.341 147.992 101.983 148.365 101.717 148.856C101.45 149.347 101.317 149.923 101.317 150.584C101.317 151.256 101.45 151.843 101.717 152.344C101.983 152.835 102.341 153.213 102.789 153.48C103.237 153.736 103.733 153.864 104.277 153.864C104.821 153.864 105.317 153.736 105.765 153.48C106.223 153.213 106.586 152.835 106.853 152.344C107.119 151.843 107.253 151.261 107.253 150.6ZM112.641 147.848C112.929 147.347 113.356 146.931 113.921 146.6C114.497 146.259 115.164 146.088 115.921 146.088C116.7 146.088 117.404 146.275 118.033 146.648C118.673 147.021 119.174 147.549 119.537 148.232C119.9 148.904 120.081 149.688 120.081 150.584C120.081 151.469 119.9 152.259 119.537 152.952C119.174 153.645 118.673 154.184 118.033 154.568C117.404 154.952 116.7 155.144 115.921 155.144C115.174 155.144 114.513 154.979 113.937 154.648C113.372 154.307 112.94 153.885 112.641 153.384V159.16H111.185V146.232H112.641V147.848ZM118.593 150.584C118.593 149.923 118.46 149.347 118.193 148.856C117.926 148.365 117.564 147.992 117.105 147.736C116.657 147.48 116.161 147.352 115.617 147.352C115.084 147.352 114.588 147.485 114.129 147.752C113.681 148.008 113.318 148.387 113.041 148.888C112.774 149.379 112.641 149.949 112.641 150.6C112.641 151.261 112.774 151.843 113.041 152.344C113.318 152.835 113.681 153.213 114.129 153.48C114.588 153.736 115.084 153.864 115.617 153.864C116.161 153.864 116.657 153.736 117.105 153.48C117.564 153.213 117.926 152.835 118.193 152.344C118.46 151.843 118.593 151.256 118.593 150.584ZM126.35 146.072C127.011 146.072 127.608 146.216 128.142 146.504C128.675 146.781 129.091 147.203 129.39 147.768C129.699 148.333 129.854 149.021 129.854 149.832V155H128.414V150.04C128.414 149.165 128.195 148.499 127.758 148.04C127.32 147.571 126.723 147.336 125.966 147.336C125.198 147.336 124.584 147.576 124.126 148.056C123.678 148.536 123.454 149.235 123.454 150.152V155H121.998V143.16H123.454V147.48C123.742 147.032 124.136 146.685 124.638 146.44C125.15 146.195 125.72 146.072 126.35 146.072ZM139.784 146.232L134.504 159.128H133L134.728 154.904L131.192 146.232H132.808L135.56 153.336L138.28 146.232H139.784Z" fill="white"/>
</svg>
