<svg width="257" height="231" viewBox="0 0 257 231" fill="none" xmlns="http://www.w3.org/2000/svg">
    <rect width="257" height="231" fill="#161616"/>
    <path d="M66.3679 118.815V107.945H69.1676V108.955H67.5866V117.805H69.1676V118.815H66.3679ZM70.3917 119.455V110.455H71.636V111.516H71.7425C71.8164 111.379 71.9229 111.222 72.0621 111.043C72.2013 110.864 72.3945 110.707 72.6417 110.574C72.8888 110.438 73.2156 110.369 73.6218 110.369C74.1502 110.369 74.6218 110.503 75.0366 110.77C75.4513 111.037 75.7766 111.422 76.0124 111.925C76.2511 112.428 76.3704 113.033 76.3704 113.74C76.3704 114.447 76.2525 115.054 76.0167 115.56C75.7809 116.062 75.457 116.45 75.0451 116.723C74.6332 116.993 74.163 117.128 73.6346 117.128C73.2369 117.128 72.9116 117.061 72.6587 116.928C72.4087 116.794 72.2127 116.638 72.0707 116.459C71.9286 116.28 71.8192 116.121 71.7425 115.982H71.6658V119.455H70.3917ZM71.6403 113.727C71.6403 114.187 71.707 114.591 71.8406 114.938C71.9741 115.284 72.1673 115.555 72.4201 115.751C72.6729 115.945 72.9826 116.041 73.3491 116.041C73.7298 116.041 74.0479 115.94 74.3036 115.739C74.5593 115.534 74.7525 115.257 74.8832 114.908C75.0167 114.558 75.0835 114.165 75.0835 113.727C75.0835 113.295 75.0181 112.908 74.8874 112.564C74.7596 112.22 74.5664 111.949 74.3079 111.75C74.0522 111.551 73.7326 111.452 73.3491 111.452C72.9798 111.452 72.6673 111.547 72.4116 111.737C72.1587 111.928 71.967 112.193 71.8363 112.534C71.7056 112.875 71.6403 113.273 71.6403 113.727ZM79.0721 108.273V117H77.7979V108.273H79.0721ZM82.6911 117.145C82.2763 117.145 81.9013 117.068 81.5661 116.915C81.2308 116.759 80.9652 116.533 80.7692 116.237C80.576 115.942 80.4794 115.58 80.4794 115.151C80.4794 114.781 80.5504 114.477 80.6925 114.239C80.8345 114 81.0263 113.811 81.2678 113.672C81.5092 113.533 81.7791 113.428 82.0774 113.357C82.3757 113.286 82.6797 113.232 82.9893 113.195C83.3814 113.149 83.6996 113.112 83.9439 113.084C84.1882 113.053 84.3658 113.003 84.4766 112.935C84.5874 112.866 84.6428 112.756 84.6428 112.602V112.572C84.6428 112.2 84.5376 111.912 84.3274 111.707C84.12 111.503 83.8104 111.401 83.3984 111.401C82.9695 111.401 82.6314 111.496 82.3842 111.686C82.1399 111.874 81.9709 112.082 81.8771 112.312L80.6797 112.04C80.8217 111.642 81.0291 111.321 81.3018 111.077C81.5774 110.83 81.8942 110.651 82.2521 110.54C82.6101 110.426 82.9865 110.369 83.3814 110.369C83.6428 110.369 83.9197 110.401 84.2124 110.463C84.5078 110.523 84.7834 110.634 85.0391 110.795C85.2976 110.957 85.5092 111.189 85.674 111.49C85.8388 111.788 85.9212 112.176 85.9212 112.653V117H84.6768V116.105H84.6257C84.5433 116.27 84.4197 116.432 84.255 116.591C84.0902 116.75 83.8786 116.882 83.62 116.987C83.3615 117.092 83.0518 117.145 82.6911 117.145ZM82.968 116.122C83.3203 116.122 83.6214 116.053 83.8714 115.913C84.1243 115.774 84.3161 115.592 84.4467 115.368C84.5803 115.141 84.647 114.898 84.647 114.639V113.795C84.6016 113.841 84.5135 113.884 84.3828 113.923C84.255 113.96 84.1087 113.993 83.9439 114.021C83.7791 114.047 83.6186 114.071 83.4624 114.094C83.3061 114.114 83.1754 114.131 83.0703 114.145C82.8232 114.176 82.5973 114.229 82.3928 114.303C82.1911 114.376 82.0291 114.483 81.907 114.622C81.7876 114.759 81.728 114.94 81.728 115.168C81.728 115.483 81.8445 115.722 82.0774 115.884C82.3104 116.043 82.6072 116.122 82.968 116.122ZM90.3754 117.132C89.7418 117.132 89.1964 116.989 88.739 116.702C88.2844 116.412 87.935 116.013 87.6907 115.504C87.4464 114.996 87.3242 114.413 87.3242 113.757C87.3242 113.092 87.4492 112.506 87.6992 111.997C87.9492 111.486 88.3015 111.087 88.756 110.8C89.2106 110.513 89.7461 110.369 90.3626 110.369C90.8597 110.369 91.3029 110.462 91.6921 110.646C92.0813 110.828 92.3952 111.084 92.6339 111.413C92.8754 111.743 93.0188 112.128 93.0643 112.568H91.8242C91.756 112.261 91.5998 111.997 91.3555 111.776C91.114 111.554 90.7901 111.443 90.3839 111.443C90.0288 111.443 89.7177 111.537 89.4506 111.724C89.1864 111.909 88.9805 112.173 88.8327 112.517C88.685 112.858 88.6112 113.261 88.6112 113.727C88.6112 114.205 88.6836 114.616 88.8285 114.963C88.9734 115.31 89.1779 115.578 89.4421 115.768C89.7092 115.959 90.0231 116.054 90.3839 116.054C90.6254 116.054 90.8441 116.01 91.0401 115.922C91.239 115.831 91.4052 115.702 91.5387 115.534C91.6751 115.366 91.7702 115.165 91.8242 114.929H93.0643C93.0188 115.352 92.881 115.73 92.6509 116.062C92.4208 116.395 92.1126 116.656 91.7262 116.847C91.3427 117.037 90.8924 117.132 90.3754 117.132ZM97.2479 117.132C96.603 117.132 96.0476 116.994 95.5817 116.719C95.1186 116.44 94.7607 116.05 94.5078 115.547C94.2578 115.041 94.1328 114.449 94.1328 113.77C94.1328 113.099 94.2578 112.509 94.5078 111.997C94.7607 111.486 95.1129 111.087 95.5646 110.8C96.0192 110.513 96.5504 110.369 97.1584 110.369C97.5277 110.369 97.8857 110.43 98.2322 110.553C98.5788 110.675 98.8899 110.866 99.1655 111.128C99.4411 111.389 99.6584 111.729 99.8175 112.146C99.9766 112.561 100.056 113.065 100.056 113.659V114.111H94.853V113.156H98.8075C98.8075 112.821 98.7393 112.524 98.603 112.266C98.4666 112.004 98.2749 111.798 98.0277 111.648C97.7834 111.497 97.4964 111.422 97.1669 111.422C96.8089 111.422 96.4964 111.51 96.2294 111.686C95.9652 111.859 95.7607 112.087 95.6158 112.368C95.4737 112.646 95.4027 112.949 95.4027 113.276V114.021C95.4027 114.459 95.4794 114.831 95.6328 115.138C95.7891 115.445 96.0064 115.679 96.2848 115.841C96.5632 116 96.8885 116.08 97.2607 116.08C97.5021 116.08 97.7223 116.045 97.9212 115.977C98.12 115.906 98.2919 115.801 98.4368 115.662C98.5817 115.523 98.6925 115.351 98.7692 115.146L99.9751 115.364C99.8786 115.719 99.7053 116.03 99.4553 116.297C99.2081 116.561 98.897 116.767 98.522 116.915C98.1499 117.06 97.7251 117.132 97.2479 117.132ZM102.744 113.114V117H101.47V108.273H102.727V111.52H102.808C102.961 111.168 103.196 110.888 103.511 110.68C103.826 110.473 104.238 110.369 104.747 110.369C105.196 110.369 105.588 110.462 105.923 110.646C106.261 110.831 106.522 111.107 106.707 111.473C106.895 111.837 106.988 112.291 106.988 112.837V117H105.714V112.99C105.714 112.51 105.591 112.138 105.343 111.874C105.096 111.607 104.752 111.473 104.312 111.473C104.011 111.473 103.741 111.537 103.502 111.665C103.267 111.793 103.081 111.98 102.944 112.227C102.811 112.472 102.744 112.767 102.744 113.114ZM111.446 117.132C110.832 117.132 110.297 116.991 109.839 116.71C109.382 116.429 109.027 116.036 108.774 115.53C108.521 115.024 108.395 114.433 108.395 113.757C108.395 113.078 108.521 112.484 108.774 111.976C109.027 111.467 109.382 111.072 109.839 110.791C110.297 110.51 110.832 110.369 111.446 110.369C112.059 110.369 112.595 110.51 113.052 110.791C113.51 111.072 113.865 111.467 114.118 111.976C114.37 112.484 114.497 113.078 114.497 113.757C114.497 114.433 114.37 115.024 114.118 115.53C113.865 116.036 113.51 116.429 113.052 116.71C112.595 116.991 112.059 117.132 111.446 117.132ZM111.45 116.062C111.848 116.062 112.177 115.957 112.439 115.747C112.7 115.537 112.893 115.257 113.018 114.908C113.146 114.558 113.21 114.173 113.21 113.753C113.21 113.335 113.146 112.952 113.018 112.602C112.893 112.25 112.7 111.967 112.439 111.754C112.177 111.541 111.848 111.435 111.45 111.435C111.049 111.435 110.717 111.541 110.453 111.754C110.191 111.967 109.997 112.25 109.869 112.602C109.744 112.952 109.681 113.335 109.681 113.753C109.681 114.173 109.744 114.558 109.869 114.908C109.997 115.257 110.191 115.537 110.453 115.747C110.717 115.957 111.049 116.062 111.45 116.062ZM117.193 108.273V117H115.919V108.273H117.193ZM121.358 117.128C120.829 117.128 120.358 116.993 119.943 116.723C119.531 116.45 119.207 116.062 118.971 115.56C118.738 115.054 118.622 114.447 118.622 113.74C118.622 113.033 118.74 112.428 118.975 111.925C119.214 111.422 119.541 111.037 119.956 110.77C120.37 110.503 120.841 110.369 121.366 110.369C121.772 110.369 122.099 110.438 122.346 110.574C122.596 110.707 122.789 110.864 122.926 111.043C123.065 111.222 123.173 111.379 123.25 111.516H123.326V108.273H124.6V117H123.356V115.982H123.25C123.173 116.121 123.062 116.28 122.917 116.459C122.775 116.638 122.579 116.794 122.329 116.928C122.079 117.061 121.755 117.128 121.358 117.128ZM121.639 116.041C122.005 116.041 122.315 115.945 122.568 115.751C122.824 115.555 123.017 115.284 123.147 114.938C123.281 114.591 123.348 114.187 123.348 113.727C123.348 113.273 123.282 112.875 123.152 112.534C123.021 112.193 122.829 111.928 122.576 111.737C122.324 111.547 122.011 111.452 121.639 111.452C121.255 111.452 120.936 111.551 120.68 111.75C120.424 111.949 120.231 112.22 120.1 112.564C119.973 112.908 119.909 113.295 119.909 113.727C119.909 114.165 119.974 114.558 120.105 114.908C120.235 115.257 120.429 115.534 120.684 115.739C120.943 115.94 121.261 116.041 121.639 116.041ZM129.24 117.132C128.595 117.132 128.04 116.994 127.574 116.719C127.111 116.44 126.753 116.05 126.5 115.547C126.25 115.041 126.125 114.449 126.125 113.77C126.125 113.099 126.25 112.509 126.5 111.997C126.753 111.486 127.105 111.087 127.557 110.8C128.011 110.513 128.543 110.369 129.151 110.369C129.52 110.369 129.878 110.43 130.224 110.553C130.571 110.675 130.882 110.866 131.158 111.128C131.433 111.389 131.651 111.729 131.81 112.146C131.969 112.561 132.048 113.065 132.048 113.659V114.111H126.845V113.156H130.8C130.8 112.821 130.732 112.524 130.595 112.266C130.459 112.004 130.267 111.798 130.02 111.648C129.776 111.497 129.489 111.422 129.159 111.422C128.801 111.422 128.489 111.51 128.222 111.686C127.957 111.859 127.753 112.087 127.608 112.368C127.466 112.646 127.395 112.949 127.395 113.276V114.021C127.395 114.459 127.472 114.831 127.625 115.138C127.781 115.445 127.999 115.679 128.277 115.841C128.555 116 128.881 116.08 129.253 116.08C129.494 116.08 129.714 116.045 129.913 115.977C130.112 115.906 130.284 115.801 130.429 115.662C130.574 115.523 130.685 115.351 130.761 115.146L131.967 115.364C131.871 115.719 131.697 116.03 131.447 116.297C131.2 116.561 130.889 116.767 130.514 116.915C130.142 117.06 129.717 117.132 129.24 117.132ZM133.462 117V110.455H134.694V111.494H134.762C134.881 111.142 135.091 110.865 135.392 110.663C135.696 110.459 136.04 110.357 136.424 110.357C136.503 110.357 136.597 110.359 136.705 110.365C136.816 110.371 136.902 110.378 136.965 110.386V111.605C136.914 111.591 136.823 111.575 136.692 111.558C136.561 111.538 136.431 111.528 136.3 111.528C135.999 111.528 135.73 111.592 135.495 111.72C135.262 111.845 135.077 112.02 134.941 112.244C134.804 112.466 134.736 112.719 134.736 113.003V117H133.462ZM141.243 117V110.455H142.517V117H141.243ZM141.887 109.445C141.665 109.445 141.475 109.371 141.316 109.223C141.159 109.072 141.081 108.893 141.081 108.686C141.081 108.476 141.159 108.297 141.316 108.149C141.475 107.999 141.665 107.923 141.887 107.923C142.108 107.923 142.297 107.999 142.453 108.149C142.613 108.297 142.692 108.476 142.692 108.686C142.692 108.893 142.613 109.072 142.453 109.223C142.297 109.371 142.108 109.445 141.887 109.445ZM144.232 117V110.455H145.455V111.52H145.536C145.672 111.159 145.895 110.878 146.205 110.676C146.514 110.472 146.885 110.369 147.317 110.369C147.754 110.369 148.121 110.472 148.416 110.676C148.714 110.881 148.935 111.162 149.077 111.52H149.145C149.301 111.17 149.55 110.892 149.891 110.685C150.232 110.474 150.638 110.369 151.109 110.369C151.703 110.369 152.188 110.555 152.562 110.928C152.94 111.3 153.129 111.861 153.129 112.611V117H151.855V112.73C151.855 112.287 151.734 111.966 151.493 111.767C151.251 111.568 150.963 111.469 150.628 111.469C150.213 111.469 149.891 111.597 149.661 111.852C149.43 112.105 149.315 112.43 149.315 112.828V117H148.045V112.649C148.045 112.294 147.935 112.009 147.713 111.793C147.491 111.577 147.203 111.469 146.848 111.469C146.607 111.469 146.384 111.533 146.179 111.661C145.977 111.786 145.814 111.96 145.689 112.185C145.567 112.409 145.506 112.669 145.506 112.964V117H144.232ZM156.742 117.145C156.327 117.145 155.952 117.068 155.617 116.915C155.282 116.759 155.016 116.533 154.82 116.237C154.627 115.942 154.53 115.58 154.53 115.151C154.53 114.781 154.601 114.477 154.743 114.239C154.885 114 155.077 113.811 155.319 113.672C155.56 113.533 155.83 113.428 156.128 113.357C156.426 113.286 156.73 113.232 157.04 113.195C157.432 113.149 157.75 113.112 157.995 113.084C158.239 113.053 158.417 113.003 158.527 112.935C158.638 112.866 158.694 112.756 158.694 112.602V112.572C158.694 112.2 158.588 111.912 158.378 111.707C158.171 111.503 157.861 111.401 157.449 111.401C157.02 111.401 156.682 111.496 156.435 111.686C156.191 111.874 156.022 112.082 155.928 112.312L154.73 112.04C154.873 111.642 155.08 111.321 155.353 111.077C155.628 110.83 155.945 110.651 156.303 110.54C156.661 110.426 157.037 110.369 157.432 110.369C157.694 110.369 157.971 110.401 158.263 110.463C158.559 110.523 158.834 110.634 159.09 110.795C159.348 110.957 159.56 111.189 159.725 111.49C159.89 111.788 159.972 112.176 159.972 112.653V117H158.728V116.105H158.676C158.594 116.27 158.471 116.432 158.306 116.591C158.141 116.75 157.929 116.882 157.671 116.987C157.412 117.092 157.103 117.145 156.742 117.145ZM157.019 116.122C157.371 116.122 157.672 116.053 157.922 115.913C158.175 115.774 158.367 115.592 158.498 115.368C158.631 115.141 158.698 114.898 158.698 114.639V113.795C158.652 113.841 158.564 113.884 158.434 113.923C158.306 113.96 158.159 113.993 157.995 114.021C157.83 114.047 157.669 114.071 157.513 114.094C157.357 114.114 157.226 114.131 157.121 114.145C156.874 114.176 156.648 114.229 156.444 114.303C156.242 114.376 156.08 114.483 155.958 114.622C155.838 114.759 155.779 114.94 155.779 115.168C155.779 115.483 155.895 115.722 156.128 115.884C156.361 116.043 156.658 116.122 157.019 116.122ZM164.413 119.591C163.893 119.591 163.446 119.523 163.071 119.386C162.699 119.25 162.395 119.07 162.159 118.845C161.923 118.621 161.747 118.375 161.631 118.108L162.726 117.656C162.803 117.781 162.905 117.913 163.033 118.053C163.163 118.195 163.339 118.315 163.561 118.415C163.786 118.514 164.074 118.564 164.426 118.564C164.909 118.564 165.308 118.446 165.624 118.21C165.939 117.977 166.097 117.605 166.097 117.094V115.807H166.016C165.939 115.946 165.828 116.101 165.683 116.271C165.541 116.442 165.345 116.589 165.095 116.714C164.845 116.839 164.52 116.902 164.119 116.902C163.602 116.902 163.136 116.781 162.722 116.54C162.31 116.295 161.983 115.936 161.741 115.462C161.503 114.984 161.384 114.398 161.384 113.702C161.384 113.006 161.501 112.409 161.737 111.912C161.976 111.415 162.303 111.034 162.717 110.77C163.132 110.503 163.602 110.369 164.128 110.369C164.534 110.369 164.862 110.438 165.112 110.574C165.362 110.707 165.557 110.864 165.696 111.043C165.838 111.222 165.947 111.379 166.024 111.516H166.118V110.455H167.366V117.145C167.366 117.707 167.236 118.169 166.974 118.53C166.713 118.891 166.359 119.158 165.913 119.331C165.47 119.504 164.97 119.591 164.413 119.591ZM164.401 115.845C164.767 115.845 165.077 115.76 165.33 115.589C165.585 115.416 165.778 115.169 165.909 114.848C166.043 114.524 166.109 114.136 166.109 113.685C166.109 113.244 166.044 112.857 165.913 112.521C165.783 112.186 165.591 111.925 165.338 111.737C165.085 111.547 164.773 111.452 164.401 111.452C164.017 111.452 163.697 111.551 163.442 111.75C163.186 111.946 162.993 112.213 162.862 112.551C162.734 112.889 162.67 113.267 162.67 113.685C162.67 114.114 162.736 114.49 162.866 114.814C162.997 115.138 163.19 115.391 163.446 115.572C163.705 115.754 164.023 115.845 164.401 115.845ZM171.896 117.132C171.251 117.132 170.696 116.994 170.23 116.719C169.767 116.44 169.409 116.05 169.156 115.547C168.906 115.041 168.781 114.449 168.781 113.77C168.781 113.099 168.906 112.509 169.156 111.997C169.409 111.486 169.761 111.087 170.213 110.8C170.668 110.513 171.199 110.369 171.807 110.369C172.176 110.369 172.534 110.43 172.881 110.553C173.227 110.675 173.538 110.866 173.814 111.128C174.089 111.389 174.307 111.729 174.466 112.146C174.625 112.561 174.705 113.065 174.705 113.659V114.111H169.501V113.156H173.456C173.456 112.821 173.388 112.524 173.251 112.266C173.115 112.004 172.923 111.798 172.676 111.648C172.432 111.497 172.145 111.422 171.815 111.422C171.457 111.422 171.145 111.51 170.878 111.686C170.614 111.859 170.409 112.087 170.264 112.368C170.122 112.646 170.051 112.949 170.051 113.276V114.021C170.051 114.459 170.128 114.831 170.281 115.138C170.438 115.445 170.655 115.679 170.933 115.841C171.212 116 171.537 116.08 171.909 116.08C172.151 116.08 172.371 116.045 172.57 115.977C172.768 115.906 172.94 115.801 173.085 115.662C173.23 115.523 173.341 115.351 173.418 115.146L174.624 115.364C174.527 115.719 174.354 116.03 174.104 116.297C173.857 116.561 173.545 116.767 173.17 116.915C172.798 117.06 172.374 117.132 171.896 117.132ZM178.428 107.945V118.815H175.628V117.805H177.209V108.955H175.628V107.945H178.428Z" fill="white"/>
</svg>
