<svg width="125" height="104" viewBox="0 0 125 104" fill="none" xmlns="http://www.w3.org/2000/svg">
<path d="M62.28 96.7901L1.56006 68.8301L62.28 45.2701L123 68.8301L62.28 96.7901Z" fill="#27292E" stroke="#C4C740" stroke-width="0.88" stroke-miterlimit="10"/>
<path d="M62.28 74.7701L1.56006 46.8101L62.28 23.2501L123 46.8101L62.28 74.7701Z" fill="#C4C740" stroke="#27292E" stroke-miterlimit="10"/>
<path d="M62.28 55.4001L1.56006 27.4301L62.28 3.87012L123 27.4301L62.28 55.4001Z" fill="#27292E" stroke="#C4C740" stroke-width="0.88" stroke-miterlimit="10"/>
<path d="M124.13 27.3501V31.6401L62.1201 61.2801L0.52002 31.6401V27.3501L62.1201 55.3901L124.13 27.3501Z" fill="#C4C740"/>
<path d="M124.13 46.6802V50.9702L62.1201 80.6102L0.52002 50.9702V46.6802L62.1201 74.7202L124.13 46.6802Z" fill="#C4C740"/>
<path d="M124.13 68.8V73.0901L62.1201 102.73L0.52002 73.0901V68.8L62.1201 96.8401L124.13 68.8Z" fill="#C4C740"/>
<path d="M62.28 54.5202V102.96L0.52002 73.0902V25.7002L61.4 1.67017L62.28 54.5202Z" stroke="#27292E" stroke-width="1.04" stroke-miterlimit="10"/>
<path d="M62.23 54.5201V102.96L123.99 73.0901V24.7901L62.39 0.760132L62.23 54.5201Z" stroke="#27292E" stroke-width="1.04" stroke-miterlimit="10"/>
<path d="M0.52002 31.6401L62.1201 61.2801L124.13 31.6401" stroke="#27292E" stroke-width="1.04" stroke-miterlimit="10"/>
<path d="M124.13 50.9701L62.1201 80.6101L0.52002 50.9701" stroke="#27292E" stroke-width="1.04" stroke-miterlimit="10"/>
<path d="M0.689941 48.4102L62.1199 76.9702L124.05 48.7402" stroke="#27292E" stroke-width="0.5" stroke-miterlimit="10"/>
</svg>
