<svg width="76" height="76" viewBox="0 0 76 76" fill="none" xmlns="http://www.w3.org/2000/svg">
    <path d="M37.9399 75.4404C58.6506 75.4404 75.4399 58.6511 75.4399 37.9404C75.4399 17.2298 58.6506 0.44043 37.9399 0.44043C17.2293 0.44043 0.439941 17.2298 0.439941 37.9404C0.439941 58.6511 17.2293 75.4404 37.9399 75.4404Z" fill="#191D20" stroke="#C4C740" stroke-width="0.88" stroke-miterlimit="10"/>
    <path d="M39.8467 49.6229L49.743 37.914L39.8467 26.2627H52.7553L62.6935 37.9716L52.7553 49.6229H39.8467Z" fill="#C4C740" stroke="#191D20" stroke-width="0.04" stroke-miterlimit="10"/>
    <path d="M25.1257 49.6229L34.9225 37.9716L25.1257 26.2627H35.4935L45.4317 37.914L35.4935 49.6229H25.1257Z" fill="#C4C740" stroke="#191D20" stroke-width="0.04" stroke-miterlimit="10"/>
    <path d="M13.1914 49.6229L22.9881 37.914L13.1914 26.2627H20.7669L30.7051 37.914L20.7669 49.6229H13.1914Z" fill="#C4C740" stroke="#191D20" stroke-width="0.04" stroke-miterlimit="10"/>
</svg>
