<svg width="76" height="76" viewBox="0 0 76 76" fill="none" xmlns="http://www.w3.org/2000/svg">
    <path d="M37.9399 75.4404C58.6506 75.4404 75.4399 58.6511 75.4399 37.9404C75.4399 17.2298 58.6506 0.44043 37.9399 0.44043C17.2292 0.44043 0.439941 17.2298 0.439941 37.9404C0.439941 58.6511 17.2292 75.4404 37.9399 75.4404Z" fill="#191D20" stroke="#C4C740" stroke-width="0.88" stroke-miterlimit="10"/>
    <path d="M61.3315 15.0364L59.1521 24.2673C59.0787 24.5764 58.7016 24.6864 58.471 24.4716L56.6793 22.8057C56.5169 22.659 56.2707 22.659 56.1135 22.8109L51.1366 27.6464C50.9742 27.8036 50.7123 27.7983 50.5551 27.6412L48.1923 25.2208C48.0352 25.0584 48.0352 24.8017 48.1923 24.6445L53.0487 19.7619C53.2059 19.6047 53.2059 19.3532 53.0592 19.1908L51.3933 17.4044C51.1785 17.1739 51.2938 16.7967 51.5976 16.7233L60.8285 14.5439C61.1272 14.4758 61.3943 14.743 61.321 15.0364H61.3315Z" fill="#C4C740"/>
    <path d="M24.4602 58.4556C24.6907 58.6861 24.5912 59.0738 24.2716 59.1524L15.025 61.337C14.7263 61.4051 14.4592 61.1379 14.5325 60.8446L16.7119 51.6136C16.7852 51.3045 17.1624 51.1945 17.3929 51.4093L19.1794 53.0753C19.3418 53.2272 19.5933 53.222 19.7504 53.0648L24.6278 48.2136C24.7902 48.0564 25.047 48.0564 25.2094 48.2136L27.6612 50.6654C27.8236 50.8278 27.8236 51.0845 27.6612 51.2469L22.8047 56.1296C22.6528 56.2867 22.6423 56.5329 22.7942 56.6953C23.3338 57.2873 23.9049 57.8793 24.4602 58.4609V58.4556Z" fill="#C4C740"/>
    <path d="M24.4654 17.3987L22.7994 19.1852C22.6474 19.3476 22.6527 19.5991 22.8099 19.7562L27.6611 24.6336C27.8183 24.796 27.8183 25.0527 27.6611 25.2151L25.2093 27.6669C25.0469 27.8293 24.7902 27.8293 24.6277 27.6669L19.7504 22.8157C19.5932 22.6586 19.3418 22.6586 19.1793 22.8053L17.3929 24.4712C17.1624 24.686 16.7851 24.5708 16.7118 24.2669L14.5325 15.036C14.4643 14.7374 14.7315 14.4702 15.0249 14.5435L24.2558 16.7229C24.5649 16.7962 24.6749 17.1734 24.4601 17.404L24.4654 17.3987Z" fill="#C4C740"/>
    <path d="M59.1573 51.635L61.3314 60.8397C61.3995 61.1383 61.1323 61.4055 60.8389 61.3322L51.6342 59.158C51.3199 59.0847 51.2099 58.697 51.4352 58.4717L53.1273 56.7534C53.2845 56.5909 53.2845 56.3343 53.1273 56.1771L48.208 51.242C48.0456 51.0796 48.0456 50.8229 48.208 50.6605L50.6598 48.2087C50.8222 48.0463 51.0789 48.0463 51.2413 48.2087L56.1764 53.128C56.3336 53.2852 56.5955 53.2905 56.7527 53.128L58.471 51.4359C58.7015 51.2106 59.0839 51.3206 59.1573 51.635Z" fill="#C4C740"/>
    <path d="M61.9237 35.3991V33.9898C61.9237 33.9532 61.9237 33.9165 61.9342 33.885C62.0075 33.5864 61.9708 33.3454 61.9237 33.0521C61.9184 33.0102 61.9184 32.963 61.9237 32.9211V32.8897C61.9761 32.6015 62.3008 32.4548 62.5471 32.6068L70.6673 37.5523C70.9293 37.7094 70.9293 38.0919 70.6673 38.2543L62.0284 43.5875C61.8974 43.598 61.9132 43.5875 61.9184 43.4722C61.9341 42.4768 61.9184 41.4762 61.9184 40.4756C61.9184 40.2451 61.735 40.0617 61.5098 40.0617H54.5578C54.3325 40.0617 54.1492 39.8783 54.1492 39.6531V36.2216C54.1492 35.9963 54.3325 35.813 54.5578 35.813H61.515C61.7403 35.813 61.9237 35.6296 61.9237 35.3991Z" fill="#C4C740"/>
    <path d="M40.0618 54.5629V61.845C40.0618 61.8764 40.0723 61.9026 40.0985 61.9183L40.1089 61.9288C40.1351 61.955 40.1718 61.955 40.2033 61.9445C40.2347 61.934 40.2661 61.9236 40.2975 61.9236H42.8489C43.1684 61.9236 43.3675 62.2746 43.1999 62.547L38.2491 70.6673C38.0867 70.9292 37.7095 70.9292 37.5471 70.6673L32.654 62.6361C32.4916 62.3689 32.675 62.0231 32.9946 62.0126L35.4097 61.9393C35.6297 61.9341 35.8078 61.7507 35.8078 61.5307V54.5629C35.8078 54.3377 35.9911 54.1543 36.2164 54.1543H39.6479C39.8732 54.1543 40.0566 54.3377 40.0566 54.5629H40.0618Z" fill="#C4C740"/>
    <path d="M33.1514 13.3222L38.1022 5.2072C38.2646 4.94526 38.647 4.94526 38.8042 5.2072L43.6921 13.3222C43.8545 13.5947 43.6607 13.9457 43.3411 13.9457H40.9574C40.7321 13.9457 40.5487 14.129 40.5487 14.3543V21.3116C40.5487 21.5368 40.3654 21.7202 40.1401 21.7202H36.7086C36.4834 21.7202 36.3 21.5368 36.3 21.3116V14.3543C36.3 14.129 36.1166 13.9457 35.8913 13.9457H33.5129C33.1933 13.9457 32.9942 13.5947 33.1619 13.3222H33.1514Z" fill="#C4C740"/>
    <path d="M13.9406 33.0209V35.3994C13.9406 35.6247 14.1239 35.808 14.3492 35.808H21.3064C21.5317 35.808 21.7151 35.9914 21.7151 36.2167V39.6481C21.7151 39.8734 21.5317 40.0568 21.3064 40.0568H14.3492C14.1239 40.0568 13.9406 40.2401 13.9406 40.4654V42.8491C13.9406 43.1687 13.5896 43.3677 13.3171 43.2001L5.20209 38.3122C4.94015 38.1551 4.93491 37.7726 5.20209 37.6102L13.3171 32.6595C13.5896 32.4918 13.9406 32.6909 13.9406 33.0105V33.0209Z" fill="#C4C740"/>
</svg>
