<svg width="76" height="76" viewBox="0 0 76 76" fill="none" xmlns="http://www.w3.org/2000/svg">
    <path d="M37.9399 75.4404C58.6506 75.4404 75.4399 58.6511 75.4399 37.9404C75.4399 17.2298 58.6506 0.44043 37.9399 0.44043C17.2293 0.44043 0.439941 17.2298 0.439941 37.9404C0.439941 58.6511 17.2293 75.4404 37.9399 75.4404Z" fill="#191D20" stroke="#C4C740" stroke-width="0.88" stroke-miterlimit="10"/>
    <path d="M61.8137 46.0405V46.0772L61.7928 46.1086C61.5204 46.6692 55.0137 59.8345 49.3295 59.8345H26.5507C20.8665 59.8345 14.3651 46.6692 14.0874 46.1086L14.0717 46.0772V46.0405C13.2544 41.8389 15.5962 40.3406 16.162 40.042C16.1568 39.8691 16.1568 39.7119 16.162 39.5757C16.403 33.3729 18.9963 28.4169 21.1337 25.3573C23.4441 22.0359 25.6706 20.2128 25.7649 20.1342L25.8383 20.0766H26.4669C26.4931 19.8199 26.5927 19.4426 26.9175 19.0707C27.5409 18.3529 28.7039 17.9862 30.3699 17.9862H30.4328C30.5585 17.4047 31.0876 16.0479 33.3089 16.0479H42.5765C44.7978 16.0479 45.3269 17.4047 45.4527 17.9862H45.5155C47.1867 17.9862 48.3445 18.3529 48.968 19.0707C49.2875 19.4374 49.3871 19.8199 49.4185 20.0766H50.0472L50.1205 20.1342C50.2148 20.2128 52.4361 22.0359 54.7517 25.3573C56.8892 28.4221 59.4824 33.3781 59.7234 39.5757C59.7287 39.7119 59.7287 39.8691 59.7234 40.0367C60.2892 40.3354 62.631 41.8337 61.8242 46.0353L61.8137 46.0405Z" fill="#C4C740" stroke="#27292E" stroke-width="0.23" stroke-miterlimit="10"/>
    <path d="M59.7182 40.0416C59.7235 39.8687 59.7235 39.7116 59.7182 39.5806C59.4772 33.3777 56.884 28.4217 54.7465 25.3622C52.4362 22.0408 50.2096 20.2176 50.1153 20.1391L50.042 20.0814H49.4133C49.3871 19.8247 49.2876 19.4475 48.9628 19.0756C48.3394 18.3578 47.1763 17.9911 45.5104 17.9911H45.4475C45.3218 17.4096 44.7926 16.0527 42.5713 16.0527H33.3037C31.0824 16.0527 30.5533 17.4096 30.4276 17.9911H30.3647C28.6935 17.9911 27.5357 18.3578 26.9123 19.0756C26.5927 19.4423 26.4932 19.8247 26.4617 20.0814H25.8331L25.7597 20.1391C25.6654 20.2176 23.4441 22.0408 21.1286 25.3622C18.9911 28.427 16.3978 33.383 16.1568 39.5806C16.1516 39.7168 16.1516 39.874 16.1568 40.0469C15.591 40.3455 13.2493 41.8438 14.056 46.0454V46.082L14.077 46.1135C14.3494 46.6741 20.8561 59.8394 26.5403 59.8394H49.319C55.0032 59.8394 61.5047 46.6741 61.7824 46.1135L61.7981 46.082V46.0454C62.6153 41.8386 60.2736 40.3402 59.7078 40.0469L59.7182 40.0416ZM16.7017 39.6015C16.9374 33.5349 19.4783 28.6837 21.5686 25.6818C23.6118 22.748 25.634 20.9563 26.0322 20.6158H26.4617V33.3044C26.4617 33.4511 26.5822 33.5716 26.7289 33.5716C26.8756 33.5716 26.9961 33.4511 26.9961 33.3044V20.1495C27.0118 19.9766 27.0852 19.699 27.3314 19.4161C27.6929 19.0127 28.5102 18.5307 30.3752 18.5307H30.4014V35.2742C30.4014 35.4209 30.5219 35.5414 30.6686 35.5414C30.8153 35.5414 30.9358 35.4209 30.9358 35.2742V18.274C30.9358 18.2059 31.0301 16.5923 33.3142 16.5923H42.5818C44.8555 16.5923 44.955 18.1954 44.9603 18.274V35.2742C44.9603 35.4209 45.0808 35.5414 45.2275 35.5414C45.3741 35.5414 45.4946 35.4209 45.4946 35.2742V18.5307H45.5208C47.3859 18.5307 48.2031 19.0127 48.5646 19.4161C48.8109 19.6938 48.879 19.9766 48.8999 20.1495V33.3044C48.8999 33.4511 49.0204 33.5716 49.1671 33.5716C49.3138 33.5716 49.4343 33.4511 49.4343 33.3044V20.6158H49.8639C50.262 20.9563 52.2895 22.748 54.3274 25.6818C56.4177 28.6837 58.9586 33.5401 59.1943 39.6015C59.2258 40.4083 59.0739 41.6919 58.77 42.3572C57.6698 44.788 53.442 50.3884 37.9506 50.5718H37.9244C22.454 50.3832 18.2314 44.788 17.1313 42.3572C16.8274 41.6919 16.6755 40.4083 16.7069 39.6015H16.7017ZM61.3004 45.9039C60.9389 46.6321 54.5579 59.2946 49.3347 59.2946H26.556C21.3329 59.2946 14.9519 46.6321 14.5904 45.9039C13.9356 42.4306 15.5334 41.0475 16.2092 40.6284C16.2721 41.3042 16.4083 42.0586 16.6441 42.5773C17.3094 44.0441 18.813 46.1711 22.1763 47.9419C25.8593 49.8855 30.9043 50.9385 37.1753 51.0852C37.4267 51.0905 37.6782 51.0957 37.9349 51.1009H37.9506C38.2126 51.1009 38.4693 51.0905 38.7208 51.0852C44.9969 50.9385 50.0368 49.8803 53.7197 47.9419C57.0831 46.1711 58.5866 44.0441 59.252 42.5773C59.4877 42.0638 59.6239 41.3094 59.6868 40.6336C60.3574 41.0632 61.9552 42.4672 61.3056 45.9039H61.3004Z" fill="#27292E"/>
</svg>
