<svg width="47" height="47" viewBox="0 0 47 47" fill="none" xmlns="http://www.w3.org/2000/svg">
<path d="M23.4512 46.4399C36.1599 46.4399 46.4624 36.1425 46.4624 23.4399C46.4624 10.7374 36.1599 0.439941 23.4512 0.439941C10.7425 0.439941 0.440002 10.7374 0.440002 23.4399C0.440002 36.1425 10.7425 46.4399 23.4512 46.4399Z" stroke="#C4C740" stroke-width="0.88" stroke-miterlimit="10"/>
<path d="M36.3451 31.3367V16.501L23.5346 9.08618L10.7212 16.501V31.3367L23.5346 38.7545L36.3451 31.3367Z" stroke="#C4C740" stroke-miterlimit="10"/>
<path d="M11.1021 23.9189L23.5346 17.0721V9.08618" stroke="#C4C740" stroke-miterlimit="10"/>
<path d="M29.4949 12.7622L29.2628 20.3882L23.5345 17.0719" stroke="#C4C740" stroke-miterlimit="10"/>
<path d="M29.4949 20.9355L17.6992 27.47V34.9503" stroke="#C4C740" stroke-miterlimit="10"/>
<path d="M17.6992 27.47L23.4066 30.8933V38.7543" stroke="#C4C740" stroke-miterlimit="10"/>
<path d="M23.4067 30.8934L36.473 23.4131" stroke="#C4C740" stroke-miterlimit="10"/>
</svg>
