<svg width="47" height="47" viewBox="0 0 47 47" fill="none" xmlns="http://www.w3.org/2000/svg">
<path d="M23.4511 46.4399C36.1599 46.4399 46.4623 36.1425 46.4623 23.4399C46.4623 10.7374 36.1599 0.439941 23.4511 0.439941C10.7424 0.439941 0.439941 10.7374 0.439941 23.4399C0.439941 36.1425 10.7424 46.4399 23.4511 46.4399Z" stroke="#C4C740" stroke-width="0.88" stroke-miterlimit="10"/>
<path d="M23.8623 37.7417C31.7675 37.7417 38.1759 31.4061 38.1759 23.5908C38.1759 15.7755 31.7675 9.43994 23.8623 9.43994C15.9572 9.43994 9.54883 15.7755 9.54883 23.5908C9.54883 31.4061 15.9572 37.7417 23.8623 37.7417Z" stroke="#C4C740" stroke-miterlimit="10"/>
<path d="M23.752 37.9822C23.752 37.9822 16.3724 23.936 23.752 9.65625" stroke="#C4C740" stroke-width="0.5" stroke-miterlimit="10"/>
<path d="M20.7703 37.684C20.7703 37.684 8.0236 24.6938 20.7703 9.95435" stroke="#C4C740" stroke-width="0.5" stroke-miterlimit="10"/>
<path d="M17.1924 36.1934C17.1924 36.1934 4.44572 25.8555 17.1924 11.1472" stroke="#C4C740" stroke-width="0.5" stroke-miterlimit="10"/>
<path d="M24.0502 37.9822C24.0502 37.9822 31.4298 23.936 24.0502 9.65625" stroke="#C4C740" stroke-width="0.5" stroke-miterlimit="10"/>
<path d="M27.032 37.684C27.032 37.684 39.7787 24.6938 27.032 9.95435" stroke="#C4C740" stroke-width="0.5" stroke-miterlimit="10"/>
<path d="M30.61 36.1934C30.61 36.1934 43.3567 25.8555 30.61 11.1472" stroke="#C4C740" stroke-width="0.5" stroke-miterlimit="10"/>
<path d="M38.0641 24.2666C38.0641 24.2666 25.8511 15.5451 9.43994 24.2666" stroke="#C4C740" stroke-width="0.5" stroke-miterlimit="10"/>
<path d="M37.7659 20.3903C37.7659 20.3903 26.4257 11.6689 10.0363 20.3903" stroke="#C4C740" stroke-width="0.5" stroke-miterlimit="10"/>
<path d="M36.5733 17.4087C36.5733 17.4087 26.2081 8.68723 11.229 17.4087" stroke="#C4C740" stroke-width="0.5" stroke-miterlimit="10"/>
<path d="M35.0825 15.0234C35.0825 15.0234 25.9376 6.30198 12.7198 15.0234" stroke="#C4C740" stroke-width="0.5" stroke-miterlimit="10"/>
<path d="M9.43994 24.2666C9.43994 24.2666 21.6524 32.3171 38.0641 24.2666" stroke="#C4C740" stroke-width="0.5" stroke-miterlimit="10"/>
<path d="M10.3345 27.8445C10.3345 27.8445 21.8847 36.5083 37.4678 27.9304" stroke="#C4C740" stroke-width="0.5" stroke-miterlimit="10"/>
<path d="M11.5272 30.8264C11.5272 30.8264 22.0585 38.8287 36.2752 30.8984" stroke="#C4C740" stroke-width="0.5" stroke-miterlimit="10"/>
<path d="M12.7198 32.6152C12.7198 32.6152 22.2332 41.2897 35.0825 32.6853" stroke="#C4C740" stroke-width="0.5" stroke-miterlimit="10"/>
</svg>
