<svg width="47" height="47" viewBox="0 0 47 47" fill="none" xmlns="http://www.w3.org/2000/svg">
<path d="M23.44 46.4399C36.1425 46.4399 46.44 36.1425 46.44 23.4399C46.44 10.7374 36.1425 0.439941 23.44 0.439941C10.7374 0.439941 0.440002 10.7374 0.440002 23.4399C0.440002 36.1425 10.7374 46.4399 23.44 46.4399Z" stroke="#C4C740" stroke-width="0.88" stroke-miterlimit="10"/>
<path d="M36.217 14.2549C36.474 15.0136 35.7349 15.3755 35.4135 15.93C34.4027 17.6692 35.2032 20.0593 37.0788 20.8209C37.6573 21.0573 38.6593 20.9522 39.0041 21.4367C39.2728 21.8131 38.9193 25.1603 38.9982 25.8549C38.7557 26.7187 38.0079 26.4327 37.3797 26.564C35.2032 27.0163 33.9908 29.7449 35.1272 31.6621C35.5713 32.4121 36.3105 32.6251 35.472 33.5736C34.9899 34.1193 33.3773 35.6951 32.8193 36.0774C31.9311 36.6873 31.5952 35.8264 30.9378 35.4442C29.1528 34.4082 26.725 35.2749 26.0034 37.2009C25.7493 37.878 25.9684 38.7009 25.2468 39.1065L21.0077 39.0219C20.1429 38.7797 20.4292 38.0326 20.2977 37.4052C19.8508 35.2486 17.1834 34.0551 15.2582 35.1202C14.4694 35.558 14.2327 36.3371 13.2803 35.4996C12.9473 35.2078 10.6072 32.7185 10.5517 32.5143C10.391 31.9335 11.1477 31.4199 11.4106 30.9705C12.4653 29.1554 11.5479 26.6895 9.56128 26.0066C8.94193 25.7936 8.13558 26.0241 7.77332 25.3325L7.82592 21.0485C8.00705 20.2285 8.86304 20.4736 9.44442 20.3423C11.6034 19.8521 12.8129 17.2578 11.729 15.3084C11.2908 14.5205 10.5107 14.2841 11.3492 13.3327C12.1555 12.4193 13.3212 11.6022 14.1568 10.6859C14.9339 10.3591 15.3166 11.1353 15.8834 11.4622C17.6246 12.4719 20.0173 11.6723 20.7798 9.79878C21.0164 9.22097 20.9113 8.22001 21.3962 7.87566C21.7731 7.60719 25.1241 7.96029 25.8194 7.8815C26.6403 8.06243 26.3949 8.91747 26.5264 9.4982C27.0201 11.6694 29.6845 12.9009 31.6302 11.7482C32.381 11.3046 32.5943 10.5663 33.5438 11.4038C34.467 12.218 35.3142 13.394 36.217 14.2578V14.2549ZM25.0364 17.2023C22.8424 16.5195 19.9501 17.4825 18.501 19.2363C14.8462 23.6633 18.13 30.2497 23.8678 29.882C30.8444 29.4355 32.3139 19.4669 25.0364 17.1994V17.2023Z" stroke="#C4C740" stroke-width="0.96" stroke-miterlimit="10"/>
</svg>
